<svg width="15px" height="16px" viewBox="0 0 15 16" version="1.1" xmlns="http://www.w3.org/2000/svg" xmlns:xlink="http://www.w3.org/1999/xlink">
    <!-- Generator: Sketch 48.2 (47327) - http://www.bohemiancoding.com/sketch -->
    <desc>Created with Sketch.</desc>
    <defs></defs>
    <g id="Page-1" stroke="none" stroke-width="1" fill="none" fill-rule="evenodd">
        <g id="Community-Hover-Header" transform="translate(-1215.000000, -37.000000)" fill="#FFFFFF" fill-rule="nonzero">
            <g id="Layer_1" transform="translate(199.000000, 17.000000)">
                <g id="Layer_2-3" transform="translate(1015.000000, 20.000000)">
                    <path d="M11.38,6.79 C11.3784452,4.88445175 10.0328883,3.24455872 8.16433108,2.87091406 C6.29577382,2.49726939 4.42306171,3.49362363 3.6888442,5.25204372 C2.9546267,7.01046381 3.56277523,9.04268619 5.14222339,10.108735 C6.72167154,11.1747838 8.83385121,10.9786475 10.19,9.64 C10.9629553,8.89491657 11.3936127,7.86351009 11.38,6.79 Z M16,14.29 C15.9893088,14.9206459 15.4806459,15.4293088 14.85,15.44 C14.5437794,15.4478353 14.248885,15.3240524 14.04,15.1 L10.94,12 C9.88624974,12.7398012 8.62746452,13.1314232 7.34,13.12 C4.78739526,13.1200309 2.48290295,11.5915813 1.49,9.24 C0.822620242,7.66442464 0.822620242,5.88557536 1.49,4.31 C2.12149324,2.77810668 3.33810668,1.56149324 4.87,0.93 C6.44557536,0.262620242 8.22442464,0.262620242 9.8,0.93 C11.5579628,1.6703806 12.8891433,3.16292506 13.4244378,4.99378726 C13.9597322,6.82464946 13.6422422,8.79922048 12.56,10.37 L15.65,13.46 C15.8672283,13.6727822 15.9866849,13.9659939 15.98,14.27 L16,14.29 Z" id="Layer_1-2-2"></path>
                </g>
            </g>
        </g>
    </g>
</svg>
