<svg width="60" height="60" viewBox="0 0 60 60" fill="none" xmlns="http://www.w3.org/2000/svg">
<path d="M51.8601 8.41797H19.9531V39.1854H51.8601V8.41797Z" fill="url(#paint0_linear_132_68)"/>
<g filter="url(#filter0_bii_132_68)">
<path d="M38.186 20.9531H4V53.9996H38.186V20.9531Z" fill="url(#paint1_linear_132_68)" fill-opacity="0.3"/>
<path d="M4.5 53.4996V21.4531H37.686V53.4996H4.5Z" stroke="url(#paint2_linear_132_68)"/>
</g>
<g filter="url(#filter1_bii_132_68)">
<path d="M55.28 5H13.1172V47.1628H55.28V5Z" fill="url(#paint3_linear_132_68)" fill-opacity="0.3"/>
<path d="M55.28 5H13.1172V47.1628H55.28V5Z" stroke="url(#paint4_linear_132_68)"/>
</g>
<path d="M26.1826 26.834H28.9686V30.936C28.418 31.3093 27.7366 31.6173 26.9246 31.86C26.122 32.1027 25.3706 32.224 24.6706 32.224C23.6533 32.224 22.7386 32.0047 21.9266 31.566C21.124 31.118 20.494 30.5067 20.0366 29.732C19.5793 28.948 19.3506 28.066 19.3506 27.086C19.3506 26.1153 19.5886 25.2427 20.0646 24.468C20.5406 23.684 21.1986 23.0727 22.0386 22.634C22.8786 22.1953 23.826 21.976 24.8806 21.976C25.646 21.976 26.4113 22.116 27.1766 22.396C27.9513 22.676 28.6 23.0493 29.1226 23.516L27.2886 25.742C26.962 25.4153 26.5746 25.1587 26.1266 24.972C25.688 24.776 25.268 24.678 24.8666 24.678C24.456 24.678 24.0826 24.7853 23.7466 25C23.4106 25.2053 23.1493 25.49 22.9626 25.854C22.776 26.218 22.6826 26.6287 22.6826 27.086C22.6826 27.5527 22.776 27.9727 22.9626 28.346C23.1586 28.71 23.4246 28.9993 23.7606 29.214C24.0966 29.4193 24.4746 29.522 24.8946 29.522C25.2493 29.522 25.6786 29.41 26.1826 29.186V26.834ZM34.7826 22.186C36.0612 22.186 37.0506 22.494 37.7506 23.11C38.4506 23.7167 38.8006 24.58 38.8006 25.7C38.8006 26.8853 38.4506 27.8093 37.7506 28.472C37.0506 29.1253 36.0612 29.452 34.7826 29.452H33.4246V32H30.1766V22.186H34.7826ZM34.6146 26.988C34.9692 26.988 35.2399 26.8853 35.4266 26.68C35.6226 26.4653 35.7206 26.1713 35.7206 25.798C35.7206 25.434 35.6226 25.154 35.4266 24.958C35.2399 24.7527 34.9692 24.65 34.6146 24.65H33.4246V26.988H34.6146ZM42.8822 27.926C42.8822 28.3927 43.0222 28.7753 43.3022 29.074C43.5822 29.3727 43.9182 29.522 44.3102 29.522C44.6929 29.522 45.0102 29.3773 45.2622 29.088C45.5142 28.7893 45.6402 28.402 45.6402 27.926V22.186H48.8882V27.926C48.8882 28.7847 48.6969 29.5407 48.3142 30.194C47.9409 30.838 47.4089 31.3373 46.7182 31.692C46.0276 32.0467 45.2202 32.224 44.2962 32.224C43.3722 32.224 42.5556 32.0467 41.8462 31.692C41.1462 31.3373 40.6002 30.838 40.2082 30.194C39.8256 29.5407 39.6342 28.7847 39.6342 27.926V22.186H42.8822V27.926Z" fill="white"/>
<defs>
<filter id="filter0_bii_132_68" x="-3" y="13.9531" width="48.1855" height="47.0469" filterUnits="userSpaceOnUse" color-interpolation-filters="sRGB">
<feFlood flood-opacity="0" result="BackgroundImageFix"/>
<feGaussianBlur in="BackgroundImageFix" stdDeviation="3.5"/>
<feComposite in2="SourceAlpha" operator="in" result="effect1_backgroundBlur_132_68"/>
<feBlend mode="normal" in="SourceGraphic" in2="effect1_backgroundBlur_132_68" result="shape"/>
<feColorMatrix in="SourceAlpha" type="matrix" values="0 0 0 0 0 0 0 0 0 0 0 0 0 0 0 0 0 0 127 0" result="hardAlpha"/>
<feOffset dy="4"/>
<feGaussianBlur stdDeviation="2"/>
<feComposite in2="hardAlpha" operator="arithmetic" k2="-1" k3="1"/>
<feColorMatrix type="matrix" values="0 0 0 0 1 0 0 0 0 1 0 0 0 0 1 0 0 0 0.31 0"/>
<feBlend mode="normal" in2="shape" result="effect2_innerShadow_132_68"/>
<feColorMatrix in="SourceAlpha" type="matrix" values="0 0 0 0 0 0 0 0 0 0 0 0 0 0 0 0 0 0 127 0" result="hardAlpha"/>
<feOffset dy="4"/>
<feGaussianBlur stdDeviation="2"/>
<feComposite in2="hardAlpha" operator="arithmetic" k2="-1" k3="1"/>
<feColorMatrix type="matrix" values="0 0 0 0 1 0 0 0 0 1 0 0 0 0 1 0 0 0 0.2 0"/>
<feBlend mode="normal" in2="effect2_innerShadow_132_68" result="effect3_innerShadow_132_68"/>
</filter>
<filter id="filter1_bii_132_68" x="5.61719" y="-2.5" width="57.1621" height="57.1641" filterUnits="userSpaceOnUse" color-interpolation-filters="sRGB">
<feFlood flood-opacity="0" result="BackgroundImageFix"/>
<feGaussianBlur in="BackgroundImageFix" stdDeviation="3.5"/>
<feComposite in2="SourceAlpha" operator="in" result="effect1_backgroundBlur_132_68"/>
<feBlend mode="normal" in="SourceGraphic" in2="effect1_backgroundBlur_132_68" result="shape"/>
<feColorMatrix in="SourceAlpha" type="matrix" values="0 0 0 0 0 0 0 0 0 0 0 0 0 0 0 0 0 0 127 0" result="hardAlpha"/>
<feOffset dy="4"/>
<feGaussianBlur stdDeviation="2"/>
<feComposite in2="hardAlpha" operator="arithmetic" k2="-1" k3="1"/>
<feColorMatrix type="matrix" values="0 0 0 0 1 0 0 0 0 1 0 0 0 0 1 0 0 0 0.31 0"/>
<feBlend mode="normal" in2="shape" result="effect2_innerShadow_132_68"/>
<feColorMatrix in="SourceAlpha" type="matrix" values="0 0 0 0 0 0 0 0 0 0 0 0 0 0 0 0 0 0 127 0" result="hardAlpha"/>
<feOffset dy="4"/>
<feGaussianBlur stdDeviation="2"/>
<feComposite in2="hardAlpha" operator="arithmetic" k2="-1" k3="1"/>
<feColorMatrix type="matrix" values="0 0 0 0 1 0 0 0 0 1 0 0 0 0 1 0 0 0 0.2 0"/>
<feBlend mode="normal" in2="effect2_innerShadow_132_68" result="effect3_innerShadow_132_68"/>
</filter>
<linearGradient id="paint0_linear_132_68" x1="54.7823" y1="11.9537" x2="38.5596" y2="42.746" gradientUnits="userSpaceOnUse">
<stop offset="0.013763" stop-color="#075AD6"/>
<stop offset="1" stop-color="#64A8F8"/>
</linearGradient>
<linearGradient id="paint1_linear_132_68" x1="29.969" y1="22.8395" x2="-7.27828" y2="68.0474" gradientUnits="userSpaceOnUse">
<stop offset="0.0419" stop-color="#468DF5"/>
<stop offset="0.3603" stop-color="#7FBFFA"/>
</linearGradient>
<linearGradient id="paint2_linear_132_68" x1="37.2224" y1="24.3299" x2="7.86424" y2="50.5575" gradientUnits="userSpaceOnUse">
<stop offset="0.208333" stop-color="white" stop-opacity="0.85"/>
<stop offset="1" stop-color="#75BCFF" stop-opacity="0.17"/>
</linearGradient>
<linearGradient id="paint3_linear_132_68" x1="45.1456" y1="7.40672" x2="96.1834" y2="-21.9256" gradientUnits="userSpaceOnUse">
<stop stop-color="#468DF5"/>
<stop offset="0.689466" stop-color="#7FBFFA"/>
</linearGradient>
<linearGradient id="paint4_linear_132_68" x1="54.0915" y1="9.30826" x2="16.7979" y2="41.5146" gradientUnits="userSpaceOnUse">
<stop stop-color="#75BCFF" stop-opacity="0.17"/>
<stop offset="1" stop-color="white" stop-opacity="0.85"/>
</linearGradient>
</defs>
</svg>
