<svg width="60" height="60" viewBox="0 0 60 60" fill="none" xmlns="http://www.w3.org/2000/svg">
<path fill-rule="evenodd" clip-rule="evenodd" d="M54.1683 38.334C54.1683 38.7035 54.1489 39.0685 54.1111 39.4281C57.1121 40.6265 59.2325 43.5599 59.2325 46.9887C59.2325 51.4832 55.589 55.1267 51.0945 55.1267H38.0737H35.9036H25.0529C21.1577 55.1267 18 51.969 18 48.0737C18 44.6051 20.5039 41.7213 23.8029 41.1312C23.3952 40.2846 23.1668 39.3353 23.1668 38.3328C23.1668 34.7657 26.0585 31.874 29.6255 31.874C31.5378 31.874 33.2559 32.7051 34.4385 34.0257C36.0718 30.4695 39.6647 28 43.8343 28C49.5416 28 54.1683 32.6267 54.1683 38.334Z" fill="url(#paint0_linear_132_33)"/>
<g opacity="0.88" filter="url(#filter0_bii_132_33)">
<mask id="path-2-inside-1_132_33" fill="white">
<path fill-rule="evenodd" clip-rule="evenodd" d="M50.5019 26.5983C50.5019 26.952 50.4863 27.3021 50.4557 27.6479C53.5346 29.2315 55.6408 32.4402 55.6408 36.1408C55.6408 41.4119 51.3677 45.685 46.0965 45.685H32.4291C32.3351 45.6882 32.2407 45.6899 32.146 45.6899H17.4626C13.0024 45.6899 9.38672 42.0742 9.38672 37.614C9.38672 33.6754 12.2062 30.3954 15.9369 29.682C15.502 28.7441 15.2592 27.699 15.2592 26.5971C15.2592 22.5424 18.5462 19.2554 22.6009 19.2554C24.7756 19.2554 26.7295 20.2009 28.0738 21.7033C29.9299 17.6597 34.0146 14.8516 38.7552 14.8516C45.2427 14.8516 50.5019 20.1108 50.5019 26.5983Z"/>
</mask>
<path fill-rule="evenodd" clip-rule="evenodd" d="M50.5019 26.5983C50.5019 26.952 50.4863 27.3021 50.4557 27.6479C53.5346 29.2315 55.6408 32.4402 55.6408 36.1408C55.6408 41.4119 51.3677 45.685 46.0965 45.685H32.4291C32.3351 45.6882 32.2407 45.6899 32.146 45.6899H17.4626C13.0024 45.6899 9.38672 42.0742 9.38672 37.614C9.38672 33.6754 12.2062 30.3954 15.9369 29.682C15.502 28.7441 15.2592 27.699 15.2592 26.5971C15.2592 22.5424 18.5462 19.2554 22.6009 19.2554C24.7756 19.2554 26.7295 20.2009 28.0738 21.7033C29.9299 17.6597 34.0146 14.8516 38.7552 14.8516C45.2427 14.8516 50.5019 20.1108 50.5019 26.5983Z" fill="url(#paint1_linear_132_33)" fill-opacity="0.3"/>
<path d="M50.4557 27.6479L49.4596 27.5597L49.4002 28.2296L49.9983 28.5372L50.4557 27.6479ZM32.4291 45.685V44.685H32.4118L32.3946 44.6856L32.4291 45.685ZM15.9369 29.682L16.1247 30.6642L17.383 30.4236L16.8441 29.2614L15.9369 29.682ZM28.0738 21.7033L27.3286 22.3701L28.3461 23.5073L28.9826 22.1205L28.0738 21.7033ZM51.4518 27.7361C51.485 27.3611 51.5019 26.9815 51.5019 26.5983H49.5019C49.5019 26.9226 49.4876 27.2432 49.4596 27.5597L51.4518 27.7361ZM56.6408 36.1408C56.6408 32.051 54.3121 28.5068 50.913 26.7586L49.9983 28.5372C52.7572 29.9561 54.6408 32.8293 54.6408 36.1408H56.6408ZM46.0965 46.685C51.9199 46.685 56.6408 41.9642 56.6408 36.1408H54.6408C54.6408 40.8596 50.8154 44.685 46.0965 44.685V46.685ZM32.4291 46.685H46.0965V44.685H32.4291V46.685ZM32.146 46.6899C32.2522 46.6899 32.3581 46.688 32.4635 46.6844L32.3946 44.6856C32.3121 44.6884 32.2293 44.6899 32.146 44.6899V46.6899ZM17.4626 46.6899H32.146V44.6899H17.4626V46.6899ZM8.38672 37.614C8.38672 42.6265 12.4501 46.6899 17.4626 46.6899V44.6899C13.5547 44.6899 10.3867 41.5219 10.3867 37.614H8.38672ZM15.7491 28.6998C11.5559 29.5016 8.38672 33.1866 8.38672 37.614H10.3867C10.3867 34.1642 12.8565 31.2891 16.1247 30.6642L15.7491 28.6998ZM16.8441 29.2614C16.469 28.4526 16.2592 27.5507 16.2592 26.5971H14.2592C14.2592 27.8472 14.5349 29.0357 15.0296 30.1027L16.8441 29.2614ZM16.2592 26.5971C16.2592 23.0947 19.0985 20.2554 22.6009 20.2554V18.2554C17.9939 18.2554 14.2592 21.9901 14.2592 26.5971H16.2592ZM22.6009 20.2554C24.4793 20.2554 26.1659 21.0708 27.3286 22.3701L28.819 21.0365C27.293 19.3311 25.0719 18.2554 22.6009 18.2554V20.2554ZM38.7552 13.8516C33.6095 13.8516 29.1781 16.9005 27.165 21.2861L28.9826 22.1205C30.6818 18.4189 34.4197 15.8516 38.7552 15.8516V13.8516ZM51.5019 26.5983C51.5019 19.5585 45.795 13.8516 38.7552 13.8516V15.8516C44.6904 15.8516 49.5019 20.663 49.5019 26.5983H51.5019Z" fill="url(#paint2_linear_132_33)" mask="url(#path-2-inside-1_132_33)"/>
</g>
<g filter="url(#filter1_bii_132_33)">
<mask id="path-4-inside-2_132_33" fill="white">
<path fill-rule="evenodd" clip-rule="evenodd" d="M42.1152 13.7467C42.1152 14.1005 42.0996 14.4506 42.0689 14.7964C45.1479 16.3799 47.254 19.5886 47.254 23.2892C47.254 28.5603 42.9809 32.8334 37.7098 32.8334H24.0424C23.9484 32.8367 23.854 32.8383 23.7593 32.8383H9.07588C4.6157 32.8383 1 29.2226 1 24.7624C1 20.8238 3.81945 17.5438 7.55014 16.8305C7.11523 15.8926 6.8725 14.8474 6.8725 13.7456C6.8725 9.69084 10.1595 6.40385 14.2142 6.40385C16.3889 6.40385 18.3428 7.34938 19.6871 8.85176C21.5432 4.80816 25.6279 2 30.3685 2C36.856 2 42.1152 7.25919 42.1152 13.7467Z"/>
</mask>
<path fill-rule="evenodd" clip-rule="evenodd" d="M42.1152 13.7467C42.1152 14.1005 42.0996 14.4506 42.0689 14.7964C45.1479 16.3799 47.254 19.5886 47.254 23.2892C47.254 28.5603 42.9809 32.8334 37.7098 32.8334H24.0424C23.9484 32.8367 23.854 32.8383 23.7593 32.8383H9.07588C4.6157 32.8383 1 29.2226 1 24.7624C1 20.8238 3.81945 17.5438 7.55014 16.8305C7.11523 15.8926 6.8725 14.8474 6.8725 13.7456C6.8725 9.69084 10.1595 6.40385 14.2142 6.40385C16.3889 6.40385 18.3428 7.34938 19.6871 8.85176C21.5432 4.80816 25.6279 2 30.3685 2C36.856 2 42.1152 7.25919 42.1152 13.7467Z" fill="url(#paint3_linear_132_33)" fill-opacity="0.3"/>
<path d="M42.0689 14.7964L41.0728 14.7082L41.0135 15.3781L41.6116 15.6857L42.0689 14.7964ZM24.0424 32.8334V31.8334H24.0252L24.008 31.834L24.0424 32.8334ZM7.55014 16.8305L7.73794 17.8127L8.9963 17.5721L8.45735 16.4098L7.55014 16.8305ZM19.6871 8.85176L18.9419 9.51858L19.9594 10.6557L20.5959 9.26893L19.6871 8.85176ZM43.065 14.8846C43.0983 14.5095 43.1152 14.13 43.1152 13.7467H41.1152C41.1152 14.071 41.1009 14.3917 41.0728 14.7082L43.065 14.8846ZM48.254 23.2892C48.254 19.1994 45.9254 15.6553 42.5263 13.9071L41.6116 15.6857C44.3704 17.1045 46.254 19.9778 46.254 23.2892H48.254ZM37.7098 33.8334C43.5332 33.8334 48.254 29.1126 48.254 23.2892H46.254C46.254 28.0081 42.4287 31.8334 37.7098 31.8334V33.8334ZM24.0424 33.8334H37.7098V31.8334H24.0424V33.8334ZM23.7593 33.8383C23.8655 33.8383 23.9714 33.8365 24.0768 33.8328L24.008 31.834C23.9255 31.8369 23.8426 31.8383 23.7593 31.8383V33.8383ZM9.07588 33.8383H23.7593V31.8383H9.07588V33.8383ZM0 24.7624C0 29.7749 4.06342 33.8383 9.07588 33.8383V31.8383C5.16798 31.8383 2 28.6703 2 24.7624H0ZM7.36234 15.8483C3.16915 16.65 0 20.335 0 24.7624H2C2 21.3127 4.46975 18.4376 7.73794 17.8127L7.36234 15.8483ZM8.45735 16.4098C8.08232 15.601 7.8725 14.6992 7.8725 13.7456H5.8725C5.8725 14.9957 6.14815 16.1841 6.64293 17.2511L8.45735 16.4098ZM7.8725 13.7456C7.8725 10.2431 10.7118 7.40385 14.2142 7.40385V5.40385C9.60721 5.40385 5.8725 9.13855 5.8725 13.7456H7.8725ZM14.2142 7.40385C16.0926 7.40385 17.7792 8.21923 18.9419 9.51858L20.4323 8.18494C18.9063 6.47952 16.6852 5.40385 14.2142 5.40385V7.40385ZM30.3685 1C25.2228 1 20.7913 4.04899 18.7783 8.43459L20.5959 9.26893C22.295 5.56733 26.033 3 30.3685 3V1ZM43.1152 13.7467C43.1152 6.7069 37.4083 1 30.3685 1V3C36.3037 3 41.1152 7.81147 41.1152 13.7467H43.1152Z" fill="url(#paint4_linear_132_33)" mask="url(#path-4-inside-2_132_33)"/>
</g>
<defs>
<filter id="filter0_bii_132_33" x="2.38672" y="7.85156" width="60.2539" height="44.8398" filterUnits="userSpaceOnUse" color-interpolation-filters="sRGB">
<feFlood flood-opacity="0" result="BackgroundImageFix"/>
<feGaussianBlur in="BackgroundImageFix" stdDeviation="3.5"/>
<feComposite in2="SourceAlpha" operator="in" result="effect1_backgroundBlur_132_33"/>
<feBlend mode="normal" in="SourceGraphic" in2="effect1_backgroundBlur_132_33" result="shape"/>
<feColorMatrix in="SourceAlpha" type="matrix" values="0 0 0 0 0 0 0 0 0 0 0 0 0 0 0 0 0 0 127 0" result="hardAlpha"/>
<feOffset dy="4"/>
<feGaussianBlur stdDeviation="2"/>
<feComposite in2="hardAlpha" operator="arithmetic" k2="-1" k3="1"/>
<feColorMatrix type="matrix" values="0 0 0 0 1 0 0 0 0 1 0 0 0 0 1 0 0 0 0.31 0"/>
<feBlend mode="normal" in2="shape" result="effect2_innerShadow_132_33"/>
<feColorMatrix in="SourceAlpha" type="matrix" values="0 0 0 0 0 0 0 0 0 0 0 0 0 0 0 0 0 0 127 0" result="hardAlpha"/>
<feOffset dy="4"/>
<feGaussianBlur stdDeviation="2"/>
<feComposite in2="hardAlpha" operator="arithmetic" k2="-1" k3="1"/>
<feColorMatrix type="matrix" values="0 0 0 0 1 0 0 0 0 1 0 0 0 0 1 0 0 0 0.2 0"/>
<feBlend mode="normal" in2="effect2_innerShadow_132_33" result="effect3_innerShadow_132_33"/>
</filter>
<filter id="filter1_bii_132_33" x="-6" y="-5" width="60.2539" height="44.8398" filterUnits="userSpaceOnUse" color-interpolation-filters="sRGB">
<feFlood flood-opacity="0" result="BackgroundImageFix"/>
<feGaussianBlur in="BackgroundImageFix" stdDeviation="3.5"/>
<feComposite in2="SourceAlpha" operator="in" result="effect1_backgroundBlur_132_33"/>
<feBlend mode="normal" in="SourceGraphic" in2="effect1_backgroundBlur_132_33" result="shape"/>
<feColorMatrix in="SourceAlpha" type="matrix" values="0 0 0 0 0 0 0 0 0 0 0 0 0 0 0 0 0 0 127 0" result="hardAlpha"/>
<feOffset dy="4"/>
<feGaussianBlur stdDeviation="2"/>
<feComposite in2="hardAlpha" operator="arithmetic" k2="-1" k3="1"/>
<feColorMatrix type="matrix" values="0 0 0 0 1 0 0 0 0 1 0 0 0 0 1 0 0 0 0.31 0"/>
<feBlend mode="normal" in2="shape" result="effect2_innerShadow_132_33"/>
<feColorMatrix in="SourceAlpha" type="matrix" values="0 0 0 0 0 0 0 0 0 0 0 0 0 0 0 0 0 0 127 0" result="hardAlpha"/>
<feOffset dy="4"/>
<feGaussianBlur stdDeviation="2"/>
<feComposite in2="hardAlpha" operator="arithmetic" k2="-1" k3="1"/>
<feColorMatrix type="matrix" values="0 0 0 0 1 0 0 0 0 1 0 0 0 0 1 0 0 0 0.2 0"/>
<feBlend mode="normal" in2="effect2_innerShadow_132_33" result="effect3_innerShadow_132_33"/>
</filter>
<linearGradient id="paint0_linear_132_33" x1="63.0088" y1="31.1174" x2="51.9683" y2="61.8329" gradientUnits="userSpaceOnUse">
<stop offset="0.013763" stop-color="#075AD6"/>
<stop offset="1" stop-color="#64A8F8"/>
</linearGradient>
<linearGradient id="paint1_linear_132_33" x1="44.523" y1="16.6119" x2="14.1003" y2="70.1488" gradientUnits="userSpaceOnUse">
<stop offset="0.0419" stop-color="#468DF5"/>
<stop offset="0.3603" stop-color="#7FBFFA"/>
</linearGradient>
<linearGradient id="paint2_linear_132_33" x1="54.3369" y1="18.0027" x2="27.664" y2="52.5519" gradientUnits="userSpaceOnUse">
<stop stop-color="white" stop-opacity="0.85"/>
<stop offset="1" stop-color="#A2D2FF" stop-opacity="0.17"/>
</linearGradient>
<linearGradient id="paint3_linear_132_33" x1="36.1363" y1="3.7603" x2="5.71358" y2="57.2972" gradientUnits="userSpaceOnUse">
<stop offset="0.0419" stop-color="#468DF5"/>
<stop offset="0.3603" stop-color="#7FBFFA"/>
</linearGradient>
<linearGradient id="paint4_linear_132_33" x1="45.9502" y1="5.15111" x2="19.2772" y2="39.7003" gradientUnits="userSpaceOnUse">
<stop stop-color="white" stop-opacity="0.85"/>
<stop offset="1" stop-color="#A2D2FF" stop-opacity="0.17"/>
</linearGradient>
</defs>
</svg>
