<svg width="60" height="60" viewBox="0 0 60 60" fill="none" xmlns="http://www.w3.org/2000/svg">
<g clip-path="url(#clip0_133_392)">
<path fill-rule="evenodd" clip-rule="evenodd" d="M54.3397 26.7095C54.3397 27.1227 54.318 27.5308 54.2757 27.9327C57.63 29.2725 60 32.5514 60 36.3838C60 41.4078 55.9273 45.4806 50.9033 45.4806H33.9227L33.8996 45.4805H21.7937C17.4396 45.4805 13.9099 41.9508 13.9099 37.5967C13.9099 33.7193 16.709 30.4957 20.3967 29.8363C19.9413 28.8901 19.6861 27.8293 19.6861 26.7089C19.6861 22.7216 22.9184 19.4893 26.9057 19.4893C29.0431 19.4893 30.9635 20.4181 32.2854 21.8941C34.1111 17.9187 38.1273 15.1581 42.7883 15.1581C49.168 15.1581 54.3397 20.3298 54.3397 26.7095Z" fill="url(#paint0_linear_133_392)"/>
<g filter="url(#filter0_bii_133_392)">
<mask id="path-2-inside-1_133_392" fill="white">
<path fill-rule="evenodd" clip-rule="evenodd" d="M39.7868 13.0215C39.7868 13.3588 39.7718 13.6927 39.7426 14.0225C42.68 15.5329 44.6893 18.5939 44.6893 22.1241C44.6893 27.1523 40.6132 31.2284 35.5851 31.2284H22.4745C22.4093 31.23 22.3438 31.2309 22.2782 31.2309H8.27166C4.01707 31.2309 0.568054 27.7818 0.568054 23.5272C0.568054 19.7708 3.25667 16.6424 6.81452 15.9613C6.40077 15.0676 6.16989 14.0719 6.16989 13.0224C6.16989 9.15455 9.30536 6.01908 13.1732 6.01908C15.2468 6.01908 17.11 6.92035 18.3923 8.35256C20.1628 4.49514 24.0593 1.81625 28.5815 1.81625C34.77 1.81625 39.7868 6.83301 39.7868 13.0215Z"/>
</mask>
<path fill-rule="evenodd" clip-rule="evenodd" d="M39.7868 13.0215C39.7868 13.3588 39.7718 13.6927 39.7426 14.0225C42.68 15.5329 44.6893 18.5939 44.6893 22.1241C44.6893 27.1523 40.6132 31.2284 35.5851 31.2284H22.4745C22.4093 31.23 22.3438 31.2309 22.2782 31.2309H8.27166C4.01707 31.2309 0.568054 27.7818 0.568054 23.5272C0.568054 19.7708 3.25667 16.6424 6.81452 15.9613C6.40077 15.0676 6.16989 14.0719 6.16989 13.0224C6.16989 9.15455 9.30536 6.01908 13.1732 6.01908C15.2468 6.01908 17.11 6.92035 18.3923 8.35256C20.1628 4.49514 24.0593 1.81625 28.5815 1.81625C34.77 1.81625 39.7868 6.83301 39.7868 13.0215Z" fill="url(#paint1_linear_133_392)" fill-opacity="0.3"/>
<path d="M39.7426 14.0225L38.7465 13.9343L38.6872 14.6042L39.2854 14.9118L39.7426 14.0225ZM22.4745 31.2284V30.2284H22.462L22.4495 30.2287L22.4745 31.2284ZM6.81452 15.9613L7.00255 16.9434L8.25977 16.7027L7.72199 15.5411L6.81452 15.9613ZM18.3923 8.35256L17.6473 9.0196L18.6649 10.1561L19.3012 8.76969L18.3923 8.35256ZM40.7388 14.1107C40.7705 13.7516 40.7868 13.3883 40.7868 13.0215H38.7868C38.7868 13.3294 38.7731 13.6338 38.7465 13.9343L40.7388 14.1107ZM45.6893 22.1241C45.6893 18.2047 43.4575 14.8082 40.1999 13.1332L39.2854 14.9118C41.9026 16.2576 43.6893 18.9831 43.6893 22.1241H45.6893ZM35.5851 32.2284C41.1655 32.2284 45.6893 27.7046 45.6893 22.1241H43.6893C43.6893 26.6 40.0609 30.2284 35.5851 30.2284V32.2284ZM22.4745 32.2284H35.5851V30.2284H22.4745V32.2284ZM22.2782 32.2309C22.3522 32.2309 22.426 32.2299 22.4995 32.2281L22.4495 30.2287C22.3926 30.2301 22.3355 30.2309 22.2782 30.2309V32.2309ZM8.27166 32.2309H22.2782V30.2309H8.27166V32.2309ZM-0.431946 23.5272C-0.431946 28.3341 3.46479 32.2309 8.27166 32.2309V30.2309C4.56936 30.2309 1.56805 27.2295 1.56805 23.5272H-0.431946ZM6.6265 14.9791C2.60626 15.7487 -0.431946 19.2821 -0.431946 23.5272H1.56805C1.56805 20.2596 3.90708 17.536 7.00255 16.9434L6.6265 14.9791ZM7.72199 15.5411C7.36795 14.7764 7.16989 13.9239 7.16989 13.0224H5.16989C5.16989 14.22 5.43359 15.3587 5.90706 16.3814L7.72199 15.5411ZM7.16989 13.0224C7.16989 9.70684 9.85764 7.01908 13.1732 7.01908V5.01908C8.75307 5.01908 5.16989 8.60227 5.16989 13.0224H7.16989ZM13.1732 7.01908C14.9506 7.01908 16.5467 7.79031 17.6473 9.0196L19.1373 7.68551C17.6734 6.0504 15.543 5.01908 13.1732 5.01908V7.01908ZM28.5815 0.816254C23.6542 0.816254 19.4109 3.73599 17.4835 7.93542L19.3012 8.76969C20.9147 5.2543 24.4644 2.81625 28.5815 2.81625V0.816254ZM40.7868 13.0215C40.7868 6.28073 35.3223 0.816254 28.5815 0.816254V2.81625C34.2177 2.81625 38.7868 7.38529 38.7868 13.0215H40.7868Z" fill="url(#paint2_linear_133_392)" mask="url(#path-2-inside-1_133_392)"/>
</g>
<g filter="url(#filter1_bii_133_392)">
<mask id="path-4-inside-2_133_392" fill="white">
<path fill-rule="evenodd" clip-rule="evenodd" d="M48.8306 42.9812C48.8306 43.2073 48.8206 43.431 48.801 43.652C50.7694 44.6642 52.1159 46.7154 52.1159 49.0811C52.1159 52.4506 49.3844 55.1821 46.0149 55.1821H37.2304C37.1863 55.1832 37.142 55.1837 37.0977 55.1837H27.7116C24.8605 55.1837 22.5492 52.8725 22.5492 50.0214C22.5492 47.5041 24.3509 45.4077 26.735 44.9512C26.4577 44.3523 26.303 43.6851 26.303 42.9818C26.303 40.3899 28.4042 38.2887 30.9961 38.2887C32.3857 38.2887 33.6343 38.8927 34.4936 39.8525C35.68 37.2675 38.2912 35.4723 41.3217 35.4723C45.4687 35.4723 48.8306 38.8342 48.8306 42.9812Z"/>
</mask>
<path fill-rule="evenodd" clip-rule="evenodd" d="M48.8306 42.9812C48.8306 43.2073 48.8206 43.431 48.801 43.652C50.7694 44.6642 52.1159 46.7154 52.1159 49.0811C52.1159 52.4506 49.3844 55.1821 46.0149 55.1821H37.2304C37.1863 55.1832 37.142 55.1837 37.0977 55.1837H27.7116C24.8605 55.1837 22.5492 52.8725 22.5492 50.0214C22.5492 47.5041 24.3509 45.4077 26.735 44.9512C26.4577 44.3523 26.303 43.6851 26.303 42.9818C26.303 40.3899 28.4042 38.2887 30.9961 38.2887C32.3857 38.2887 33.6343 38.8927 34.4936 39.8525C35.68 37.2675 38.2912 35.4723 41.3217 35.4723C45.4687 35.4723 48.8306 38.8342 48.8306 42.9812Z" fill="url(#paint3_linear_133_392)" fill-opacity="0.3"/>
<path d="M48.801 43.652L47.8049 43.5638L47.7456 44.2337L48.3437 44.5413L48.801 43.652ZM37.2304 55.1821V54.1821H37.2178L37.2052 54.1824L37.2304 55.1821ZM26.735 44.9512L26.9231 45.9334L28.1803 45.6927L27.6425 44.5311L26.735 44.9512ZM34.4936 39.8525L33.7486 40.5196L34.7662 41.6561L35.4025 40.2697L34.4936 39.8525ZM49.7971 43.7402C49.8193 43.4899 49.8306 43.2367 49.8306 42.9812H47.8306C47.8306 43.1778 47.8219 43.3721 47.8049 43.5638L49.7971 43.7402ZM53.1159 49.0811C53.1159 46.3262 51.5468 43.9395 49.2583 42.7627L48.3437 44.5413C49.992 45.3889 51.1159 47.1046 51.1159 49.0811H53.1159ZM46.0149 56.1821C49.9367 56.1821 53.1159 53.0028 53.1159 49.0811H51.1159C51.1159 51.8983 48.8321 54.1821 46.0149 54.1821V56.1821ZM37.2304 56.1821H46.0149V54.1821H37.2304V56.1821ZM37.0977 56.1837C37.1505 56.1837 37.2031 56.1831 37.2556 56.1817L37.2052 54.1824C37.1694 54.1833 37.1336 54.1837 37.0977 54.1837V56.1837ZM27.7116 56.1837H37.0977V54.1837H27.7116V56.1837ZM21.5492 50.0214C21.5492 53.4247 24.3082 56.1837 27.7116 56.1837V54.1837C25.4127 54.1837 23.5492 52.3202 23.5492 50.0214H21.5492ZM26.547 43.9691C23.7004 44.5141 21.5492 47.0154 21.5492 50.0214H23.5492C23.5492 47.9929 25.0013 46.3013 26.9231 45.9334L26.547 43.9691ZM27.6425 44.5311C27.4249 44.0612 27.303 43.5371 27.303 42.9818H25.303C25.303 43.8332 25.4906 44.6435 25.8276 45.3714L27.6425 44.5311ZM27.303 42.9818C27.303 40.9422 28.9565 39.2887 30.9961 39.2887V37.2887C27.8519 37.2887 25.303 39.8376 25.303 42.9818H27.303ZM30.9961 39.2887C32.0895 39.2887 33.071 39.7627 33.7486 40.5196L35.2387 39.1855C34.1977 38.0228 32.6819 37.2887 30.9961 37.2887V39.2887ZM41.3217 34.4723C37.8861 34.4723 34.9282 36.5084 33.5848 39.4354L35.4025 40.2697C36.4319 38.0267 38.6963 36.4723 41.3217 36.4723V34.4723ZM49.8306 42.9812C49.8306 38.2819 46.021 34.4723 41.3217 34.4723V36.4723C44.9164 36.4723 47.8306 39.3865 47.8306 42.9812H49.8306Z" fill="url(#paint4_linear_133_392)" mask="url(#path-4-inside-2_133_392)"/>
</g>
</g>
<defs>
<filter id="filter0_bii_133_392" x="-6.43195" y="-5.18375" width="58.1213" height="43.4146" filterUnits="userSpaceOnUse" color-interpolation-filters="sRGB">
<feFlood flood-opacity="0" result="BackgroundImageFix"/>
<feGaussianBlur in="BackgroundImageFix" stdDeviation="3.5"/>
<feComposite in2="SourceAlpha" operator="in" result="effect1_backgroundBlur_133_392"/>
<feBlend mode="normal" in="SourceGraphic" in2="effect1_backgroundBlur_133_392" result="shape"/>
<feColorMatrix in="SourceAlpha" type="matrix" values="0 0 0 0 0 0 0 0 0 0 0 0 0 0 0 0 0 0 127 0" result="hardAlpha"/>
<feOffset dy="4"/>
<feGaussianBlur stdDeviation="2"/>
<feComposite in2="hardAlpha" operator="arithmetic" k2="-1" k3="1"/>
<feColorMatrix type="matrix" values="0 0 0 0 1 0 0 0 0 1 0 0 0 0 1 0 0 0 0.31 0"/>
<feBlend mode="normal" in2="shape" result="effect2_innerShadow_133_392"/>
<feColorMatrix in="SourceAlpha" type="matrix" values="0 0 0 0 0 0 0 0 0 0 0 0 0 0 0 0 0 0 127 0" result="hardAlpha"/>
<feOffset dy="4"/>
<feGaussianBlur stdDeviation="2"/>
<feComposite in2="hardAlpha" operator="arithmetic" k2="-1" k3="1"/>
<feColorMatrix type="matrix" values="0 0 0 0 1 0 0 0 0 1 0 0 0 0 1 0 0 0 0.2 0"/>
<feBlend mode="normal" in2="effect2_innerShadow_133_392" result="effect3_innerShadow_133_392"/>
</filter>
<filter id="filter1_bii_133_392" x="15.5492" y="28.4723" width="43.5667" height="33.7114" filterUnits="userSpaceOnUse" color-interpolation-filters="sRGB">
<feFlood flood-opacity="0" result="BackgroundImageFix"/>
<feGaussianBlur in="BackgroundImageFix" stdDeviation="3.5"/>
<feComposite in2="SourceAlpha" operator="in" result="effect1_backgroundBlur_133_392"/>
<feBlend mode="normal" in="SourceGraphic" in2="effect1_backgroundBlur_133_392" result="shape"/>
<feColorMatrix in="SourceAlpha" type="matrix" values="0 0 0 0 0 0 0 0 0 0 0 0 0 0 0 0 0 0 127 0" result="hardAlpha"/>
<feOffset dy="4"/>
<feGaussianBlur stdDeviation="2"/>
<feComposite in2="hardAlpha" operator="arithmetic" k2="-1" k3="1"/>
<feColorMatrix type="matrix" values="0 0 0 0 1 0 0 0 0 1 0 0 0 0 1 0 0 0 0.31 0"/>
<feBlend mode="normal" in2="shape" result="effect2_innerShadow_133_392"/>
<feColorMatrix in="SourceAlpha" type="matrix" values="0 0 0 0 0 0 0 0 0 0 0 0 0 0 0 0 0 0 127 0" result="hardAlpha"/>
<feOffset dy="4"/>
<feGaussianBlur stdDeviation="2"/>
<feComposite in2="hardAlpha" operator="arithmetic" k2="-1" k3="1"/>
<feColorMatrix type="matrix" values="0 0 0 0 1 0 0 0 0 1 0 0 0 0 1 0 0 0 0.2 0"/>
<feBlend mode="normal" in2="effect2_innerShadow_133_392" result="effect3_innerShadow_133_392"/>
</filter>
<linearGradient id="paint0_linear_133_392" x1="64.2211" y1="18.6427" x2="51.8799" y2="52.9768" gradientUnits="userSpaceOnUse">
<stop offset="0.013763" stop-color="#075AD6"/>
<stop offset="1" stop-color="#64A8F8"/>
</linearGradient>
<linearGradient id="paint1_linear_133_392" x1="34.0842" y1="3.49529" x2="5.0669" y2="54.562" gradientUnits="userSpaceOnUse">
<stop offset="0.0419" stop-color="#468DF5"/>
<stop offset="0.3603" stop-color="#7FBFFA"/>
</linearGradient>
<linearGradient id="paint2_linear_133_392" x1="43.4456" y1="4.82188" x2="18.0044" y2="37.7775" gradientUnits="userSpaceOnUse">
<stop stop-color="white" stop-opacity="0.85"/>
<stop offset="1" stop-color="#A2D2FF" stop-opacity="0.17"/>
</linearGradient>
<linearGradient id="paint3_linear_133_392" x1="45.0091" y1="36.5975" x2="25.564" y2="70.8185" gradientUnits="userSpaceOnUse">
<stop offset="0.0419" stop-color="#468DF5"/>
<stop offset="0.3603" stop-color="#7FBFFA"/>
</linearGradient>
<linearGradient id="paint4_linear_133_392" x1="51.2824" y1="37.4865" x2="34.2337" y2="59.5708" gradientUnits="userSpaceOnUse">
<stop offset="0.208333" stop-color="white" stop-opacity="0.85"/>
<stop offset="1" stop-color="#75BCFF" stop-opacity="0.17"/>
</linearGradient>
<clipPath id="clip0_133_392">
<rect width="60" height="60" fill="white"/>
</clipPath>
</defs>
</svg>
