<svg width="29" height="29" viewBox="0 0 29 29" fill="none" xmlns="http://www.w3.org/2000/svg">
<circle cx="14.5" cy="14.5" r="14.5" fill="#002958"/>
<g clip-path="url(#clip0_4179_347)">
<path d="M15 5.83325C9.93726 5.83325 5.83334 9.93717 5.83334 14.9999C5.83334 19.575 9.18559 23.3673 13.5682 24.0557V17.6491H11.2398V14.9999H13.5682V12.9805C13.5682 10.6833 14.9358 9.41467 17.0304 9.41467C18.0333 9.41467 19.0819 9.59342 19.0819 9.59342V11.8484H17.9269C16.7875 11.8484 16.4328 12.5552 16.4328 13.2803V14.9999H18.9747L18.5686 17.6491H16.4328V24.0557C20.8144 23.3682 24.1667 19.5741 24.1667 14.9999C24.1667 9.93717 20.0628 5.83325 15 5.83325Z" fill="#F8F9FA"/>
</g>
<defs>
<clipPath id="clip0_4179_347">
<rect width="22" height="22" fill="white" transform="translate(4 4)"/>
</clipPath>
</defs>
</svg>
