<svg width="60" height="60" viewBox="0 0 60 60" fill="none" xmlns="http://www.w3.org/2000/svg">
<rect x="8.5" y="22.5" width="43.3333" height="24.1667" rx="3" fill="url(#paint0_linear_133_320)"/>
<rect x="29" y="2" width="2" height="5" rx="1" fill="url(#paint1_linear_133_320)"/>
<g filter="url(#filter0_bii_133_320)">
<path d="M54.3194 48.3264C38.3524 48.3264 22.3854 48.3264 6.41835 48.3333C6.09761 48.3333 6 48.2845 6 47.929C6.01394 38.5607 6.01394 29.1854 6.01394 19.8171C8.16845 19.8171 10.3229 19.8171 12.4774 19.8241C12.7354 19.8241 12.9655 19.7683 13.1956 19.6498C17.6301 17.3844 22.0716 15.119 26.5131 12.8536C26.6525 12.7839 26.8129 12.749 26.9035 12.5887C26.3667 11.9335 26.0529 11.1737 25.9344 10.3303C25.8925 10.0236 25.9274 9.88415 26.3039 9.89809C26.9802 9.93294 27.6566 9.92597 28.3329 9.89809C28.6327 9.88415 28.7443 9.96779 28.821 10.2675C29.0092 10.9925 29.7065 11.4316 30.3968 11.3061C31.1219 11.1737 31.6518 10.4975 31.5821 9.77959C31.5124 9.04769 30.9127 8.51096 30.1457 8.49005C29.818 8.48308 29.4834 8.46217 29.1557 8.49702C28.814 8.53187 28.7443 8.4064 28.7512 8.08576C28.7722 6.46861 28.7512 4.84449 28.7652 3.22733C28.7722 2.89275 28.6745 2.8091 28.3538 2.82305C27.6496 2.85093 26.9384 2.82305 26.2342 2.83699C26.032 2.83699 25.9204 2.82305 25.9274 2.57211C25.9483 1.79839 25.9413 1.03163 25.9274 0.257908C25.9274 0.0418229 25.9971 0 26.1993 0C28.8558 0.00697048 31.5124 0.00697048 34.1689 0C34.3781 0 34.4338 0.0697048 34.4269 0.271849C34.4199 1.02466 34.4129 1.78444 34.4269 2.53726C34.4338 2.79516 34.3502 2.85093 34.1061 2.84396C33.381 2.83002 32.6558 2.8579 31.9377 2.83002C31.6379 2.81608 31.5751 2.91366 31.5821 3.19945C31.603 3.96621 31.603 4.73993 31.5821 5.51365C31.5751 5.79944 31.6448 5.95279 31.9307 6.06432C32.5652 6.32223 33.0812 6.76137 33.5065 7.2981C34.4757 8.5249 34.9707 10.6021 33.4437 12.6096C33.5065 12.7351 33.639 12.763 33.7505 12.8187C38.2478 15.112 42.745 17.4053 47.2353 19.6986C47.4375 19.8031 47.6467 19.831 47.8698 19.831C49.85 19.8241 51.8302 19.845 53.8104 19.8171C54.2497 19.8101 54.3333 19.9426 54.3333 20.3538C54.3194 29.6734 54.3194 38.9999 54.3194 48.3264ZM41.2181 19.8101C40.981 19.6846 40.8416 19.6149 40.7091 19.5452C37.3204 17.8166 33.9248 16.0879 30.5432 14.3453C30.2573 14.1989 30.0481 14.2128 29.7762 14.3592C27.552 15.5093 25.3138 16.6385 23.0826 17.7817C21.7927 18.4369 20.5098 19.0991 19.1153 19.8171C26.5201 19.8101 33.8063 19.8101 41.2181 19.8101ZM14.5971 34.1275C14.5971 31.3741 14.5901 28.6208 14.6041 25.8675C14.6041 25.5608 14.5274 25.4701 14.2206 25.4841C13.5442 25.512 12.8679 25.512 12.1916 25.4841C11.836 25.4701 11.7523 25.5677 11.7593 25.9163C11.7732 29.0809 11.7663 32.2385 11.7663 35.4031C11.7663 37.6964 11.7732 39.9966 11.7593 42.2899C11.7593 42.5966 11.836 42.6872 12.1428 42.6733C12.8191 42.6454 13.4954 42.6454 14.1718 42.6733C14.5274 42.6872 14.611 42.5897 14.6041 42.2411C14.5901 39.5366 14.5971 36.832 14.5971 34.1275ZM23.0896 34.1275C23.0896 31.3741 23.0826 28.6208 23.0966 25.8675C23.0966 25.5608 23.0268 25.4701 22.7131 25.4771C22.0367 25.505 21.3604 25.505 20.6841 25.4771C20.3285 25.4632 20.2448 25.5608 20.2518 25.9093C20.2657 29.0112 20.2588 32.1061 20.2588 35.2079C20.2588 37.5639 20.2657 39.9269 20.2518 42.283C20.2518 42.5897 20.3215 42.6803 20.6353 42.6733C21.3116 42.6454 21.9879 42.6454 22.6643 42.6733C23.0199 42.6872 23.1035 42.5897 23.0966 42.2411C23.0826 39.5366 23.0896 36.832 23.0896 34.1275ZM31.5821 34.1275C31.5821 31.3741 31.5751 28.6208 31.5891 25.8675C31.5891 25.5608 31.5124 25.4701 31.2056 25.4841C30.5292 25.512 29.8529 25.512 29.1766 25.4841C28.821 25.4701 28.7373 25.5677 28.7443 25.9163C28.7582 29.0809 28.7512 32.2385 28.7512 35.4031C28.7512 37.6964 28.7582 39.9966 28.7443 42.2899C28.7443 42.5966 28.821 42.6872 29.1278 42.6733C29.8041 42.6454 30.4804 42.6454 31.1568 42.6733C31.5124 42.6872 31.596 42.5897 31.5891 42.2411C31.5751 39.5366 31.5821 36.832 31.5821 34.1275ZM40.0746 34.0787C40.0746 31.3393 40.0676 28.6069 40.0816 25.8675C40.0816 25.5608 40.0049 25.4701 39.6981 25.4841C39.0217 25.512 38.3454 25.512 37.6691 25.4841C37.3135 25.4701 37.2368 25.5677 37.2368 25.9163C37.2507 29.1227 37.2437 32.3361 37.2437 35.5425C37.2437 37.794 37.2507 40.0385 37.2368 42.2899C37.2368 42.5966 37.3135 42.6872 37.6203 42.6733C38.2966 42.6454 38.9729 42.6454 39.6493 42.6733C40.0049 42.6872 40.0885 42.5897 40.0816 42.2411C40.0676 39.5157 40.0746 36.7972 40.0746 34.0787ZM48.5671 34.1275C48.5671 31.3741 48.5601 28.6208 48.574 25.8675C48.574 25.5608 48.4974 25.4701 48.1906 25.4841C47.5142 25.512 46.8379 25.512 46.1616 25.4841C45.806 25.4701 45.7223 25.5677 45.7293 25.9163C45.7432 29.046 45.7362 32.1758 45.7362 35.3055C45.7362 37.6336 45.7432 39.9618 45.7293 42.2899C45.7293 42.5966 45.806 42.6872 46.1128 42.6733C46.7891 42.6454 47.4654 42.6454 48.1418 42.6733C48.4973 42.6872 48.581 42.5897 48.574 42.2411C48.5601 39.5366 48.5671 36.832 48.5671 34.1275Z" fill="url(#paint2_linear_133_320)" fill-opacity="0.3"/>
<path d="M6.26394 20.0671C6.26394 29.3521 6.26382 38.6441 6.25 47.9292C6.25001 48.0041 6.2551 48.0484 6.26091 48.0739C6.26176 48.0741 6.26264 48.0742 6.26355 48.0744C6.29405 48.0801 6.34115 48.0833 6.41824 48.0833L6.26394 20.0671ZM6.26394 20.0671C8.33514 20.0671 10.4059 20.0674 12.4766 20.0741H12.4774C12.7752 20.0741 13.0445 20.0088 13.3098 19.8722C17.7427 17.6076 22.1827 15.343 26.6227 13.0783L26.6249 13.0772C26.6251 13.077 26.6254 13.0769 26.6257 13.0768C26.6494 13.065 26.6739 13.0544 26.7061 13.0405C26.7104 13.0387 26.7148 13.0368 26.7193 13.0348C26.7555 13.0192 26.8008 12.9994 26.8461 12.9747C26.9411 12.923 27.0457 12.8453 27.1212 12.7117L27.2054 12.5627L27.0969 12.4302C26.5915 11.8134 26.2947 11.0975 26.182 10.2956C26.1728 10.2284 26.1697 10.1834 26.1708 10.1526C26.1948 10.1487 26.2335 10.1457 26.2929 10.1479C26.2935 10.1479 26.2941 10.1479 26.2947 10.1479L26.3039 9.89809M6.26394 20.0671L29.0104 8.25004M26.3039 9.89809C26.9802 9.93294 27.6566 9.92597 28.3329 9.89809C28.6327 9.88415 28.7443 9.96779 28.821 10.2675C29.0092 10.9925 29.7065 11.4316 30.3968 11.3061C31.1219 11.1737 31.6518 10.4975 31.5821 9.77959M26.3039 9.89809C25.9274 9.88415 25.8925 10.0236 25.9344 10.3303M26.3039 9.89809L25.9344 10.3303M31.5821 9.77959L31.831 9.75588C31.8309 9.75581 31.8309 9.75574 31.8309 9.75567C31.8309 9.75559 31.8309 9.7555 31.8309 9.75542L31.5821 9.77959ZM31.5821 9.77959C31.5124 9.04769 30.9127 8.51096 30.1457 8.49005C30.0808 8.48867 30.0156 8.48674 29.9502 8.4848C29.6856 8.47698 29.4184 8.46908 29.1557 8.49702M29.1557 8.49702L29.1303 8.24831C29.1301 8.24833 29.1299 8.24835 29.1297 8.24837C29.1296 8.24839 29.1294 8.2484 29.1292 8.24842L29.1557 8.49702ZM29.1557 8.49702C28.814 8.53187 28.7443 8.4064 28.7512 8.08576C28.7627 7.20366 28.7616 6.31948 28.7606 5.43548C28.7597 4.69887 28.7589 3.96238 28.7652 3.22733M28.7652 3.22733L29.0151 3.23254C29.0151 3.23205 29.0152 3.23156 29.0152 3.23107M28.7652 3.22733L29.0152 3.22949C29.0152 3.23001 29.0152 3.23054 29.0152 3.23107M28.7652 3.22733C28.7722 2.89275 28.6745 2.8091 28.3538 2.82305M29.0152 3.23107C29.0089 3.95782 29.0097 4.69352 29.0106 5.43078C29.0116 6.31888 29.0126 7.20925 29.0012 8.08899L29.0012 8.0912C28.9996 8.16454 29.003 8.21202 29.0089 8.2427C29.0094 8.24541 29.0099 8.24784 29.0104 8.25004M29.0152 3.23107C29.0186 3.06087 29.0027 2.85522 28.8554 2.71402C28.7091 2.57378 28.5043 2.5663 28.3434 2.57326M29.0104 8.25004C29.0066 8.24949 29.0034 8.2489 29.0006 8.24829C28.9962 8.24734 28.9944 8.24668 28.9943 8.2467C28.9941 8.24673 29.0017 8.24973 29.0101 8.25919C29.014 8.26357 29.0155 8.26656 29.0155 8.26667C29.0156 8.2668 29.0132 8.26228 29.0104 8.25004ZM28.3434 2.57326C28.3436 2.57325 28.3438 2.57325 28.3439 2.57324L28.3538 2.82305M28.3434 2.57326C27.9975 2.58694 27.6487 2.58699 27.2952 2.58525C27.245 2.585 27.1946 2.58472 27.1441 2.58443C26.8419 2.58273 26.5361 2.581 26.2317 2.58699M28.3434 2.57326L26.2317 2.58699M28.3538 2.82305C27.9514 2.83898 27.5466 2.8367 27.1422 2.83443C26.839 2.83272 26.5359 2.83101 26.2342 2.83699M28.3538 2.82305L26.2342 2.83699M26.2317 2.58699C26.2107 2.58697 26.1929 2.58679 26.1771 2.58626C26.1772 2.58394 26.1772 2.58154 26.1773 2.57905L26.1773 2.57887C26.1983 1.80027 26.1913 1.02987 26.1774 0.255793C26.1774 0.253891 26.1774 0.252035 26.1774 0.250226C26.184 0.250082 26.191 0.250003 26.1987 0.249999L26.2317 2.58699ZM26.2342 2.83699C26.032 2.83699 25.9204 2.82305 25.9274 2.57211L26.2342 2.83699ZM26.9035 12.5887C26.8328 12.7137 26.7197 12.7625 26.6072 12.8109C26.5755 12.8246 26.5438 12.8382 26.5131 12.8536L26.5041 12.8581C22.0656 15.122 17.6271 17.3859 13.1956 19.6498L26.9035 12.5887ZM26.9035 12.5887C26.3667 11.9335 26.0529 11.1737 25.9344 10.3303M26.9035 12.5887L25.9344 10.3303M14.8541 25.8675V25.8687C14.8436 27.933 14.8449 29.9971 14.8462 32.0619C14.8466 32.7503 14.8471 33.4389 14.8471 34.1275C14.8471 34.8039 14.8466 35.4802 14.8462 36.1565C14.8449 38.1841 14.8436 40.211 14.854 42.238C14.8573 42.4078 14.8468 42.6199 14.703 42.7676C14.5551 42.9194 14.3399 42.9301 14.162 42.9231L14.1615 42.9231C13.4922 42.8955 12.8228 42.8955 12.1535 42.9231C12.1534 42.9231 12.1532 42.9231 12.1531 42.9231L12.1428 42.6733L14.8541 25.8675ZM14.8541 25.8675C14.8541 25.7159 14.841 25.5197 14.7067 25.3814C14.5669 25.2373 14.368 25.2272 14.2098 25.2343C13.5405 25.2619 12.8712 25.2619 12.2019 25.2343L12.2014 25.2343C12.0234 25.2273 11.8082 25.238 11.6604 25.3898C11.5166 25.5375 11.506 25.7495 11.5093 25.9193L14.8541 25.8675ZM31.8391 25.8675V25.8687C31.8286 27.9329 31.8299 29.9969 31.8312 32.0616C31.8316 32.7502 31.8321 33.4388 31.8321 34.1275C31.8321 34.804 31.8316 35.4804 31.8312 36.1567C31.8299 38.1843 31.8286 40.211 31.839 42.238C31.8423 42.4078 31.8318 42.6199 31.688 42.7676C31.5401 42.9194 31.3249 42.9301 31.147 42.9231L31.1465 42.9231C30.4772 42.8955 29.8078 42.8955 29.1385 42.9231C29.1384 42.9231 29.1382 42.9231 29.1381 42.9231L29.1278 42.6733L31.8391 25.8675ZM31.8391 25.8675C31.8391 25.7159 31.826 25.5197 31.6917 25.3814C31.5519 25.2373 31.353 25.2272 31.1948 25.2343C30.5255 25.2619 29.8562 25.2619 29.1869 25.2343L29.1864 25.2343C29.0084 25.2273 28.7932 25.238 28.6454 25.3898C28.5016 25.5375 28.491 25.7495 28.4943 25.9193L31.8391 25.8675ZM40.3316 25.8675V25.8687C40.3211 27.9221 40.3224 29.9712 40.3237 32.0232C40.3241 32.708 40.3246 33.393 40.3246 34.0787C40.3246 34.7588 40.3241 35.4388 40.3237 36.1187C40.3224 38.157 40.3211 40.1954 40.3315 42.238C40.3348 42.4078 40.3243 42.6199 40.1805 42.7676C40.0326 42.9194 39.8174 42.9301 39.6395 42.9231L39.639 42.9231C38.9697 42.8955 38.3003 42.8955 37.631 42.9231C37.6309 42.9231 37.6307 42.9231 37.6306 42.9231L37.6203 42.6733L40.3316 25.8675ZM40.3316 25.8675C40.3316 25.7159 40.3185 25.5197 40.1842 25.3814C40.0443 25.2373 39.8455 25.2272 39.6873 25.2343L40.3316 25.8675ZM34.1692 0.25C34.172 0.250001 34.1747 0.25002 34.1773 0.250054C34.1773 0.254203 34.1772 0.258595 34.177 0.26323L34.1769 0.263227L34.1769 0.269533C34.1699 1.02177 34.1629 1.78502 34.1769 2.54189L34.1769 2.54401C34.1775 2.56442 34.1773 2.58078 34.1766 2.59373C34.1606 2.59455 34.1399 2.59482 34.1133 2.59405L34.1109 2.594C33.7841 2.58772 33.4703 2.58957 33.1607 2.5914C32.7561 2.5938 32.3586 2.59615 31.9483 2.58024C31.7913 2.57304 31.5931 2.58539 31.4586 2.73553C31.3334 2.87532 31.3288 3.06781 31.3322 3.20555L31.3322 3.20627C31.353 3.96846 31.353 4.73766 31.3322 5.5069L31.3322 5.50755C31.3283 5.66601 31.3432 5.83316 31.4317 5.98205C31.5228 6.13548 31.6677 6.2298 31.8381 6.29653C32.4225 6.53443 32.9051 6.94178 33.3103 7.45307C34.2221 8.60719 34.6905 10.5576 33.2448 12.4583L33.1505 12.5822L33.2201 12.7214C33.2827 12.8465 33.3793 12.9167 33.4601 12.9603C33.4987 12.9812 33.5373 12.9977 33.5662 13.0101L33.5743 13.0136C33.6016 13.0252 33.6203 13.0332 33.6379 13.0419C38.1346 15.3349 42.6311 17.6278 47.1207 19.9208C47.3722 20.0508 47.6261 20.081 47.8698 20.081L47.8707 20.081C48.588 20.0785 49.3068 20.0796 50.0265 20.0808C51.2882 20.0828 52.5522 20.0848 53.8139 20.0671L53.8144 20.0671C53.9144 20.0655 53.9767 20.0724 54.0153 20.0823C54.0334 20.087 54.0431 20.0915 54.0474 20.0939C54.0496 20.0951 54.0506 20.0959 54.051 20.0962L54.0514 20.0965L54.0525 20.0981C54.0528 20.0985 54.0531 20.0991 54.0536 20.0999C54.0543 20.1011 54.0552 20.1028 54.0562 20.105C54.0596 20.1125 54.0643 20.1255 54.0687 20.1468C54.0781 20.1915 54.0833 20.2564 54.0833 20.3534C54.0695 29.5899 54.0694 38.8332 54.0694 48.0764C38.1857 48.0764 22.3021 48.0764 6.41835 48.0833L34.1692 0.25ZM40.8255 19.324L40.8227 19.3225C40.3328 19.0726 39.8428 18.8228 39.3528 18.5728C36.4526 17.0938 33.55 15.6135 30.6577 14.123L30.6571 14.1227C30.4889 14.0366 30.3231 13.9875 30.1473 13.9925C29.9735 13.9975 29.8149 14.0547 29.6596 14.138C28.2915 14.8455 26.9191 15.5445 25.5455 16.2441C24.6869 16.6814 23.8279 17.1189 22.9692 17.5589C21.8566 18.1241 20.7492 18.6944 19.5717 19.3008C19.3833 19.3979 19.1931 19.4958 19.0008 19.5948L19.1155 20.0671C26.5181 20.0601 33.8023 20.0601 41.212 20.0601H41.2181L41.335 19.5892C41.1944 19.5147 41.0798 19.4557 40.9847 19.4066C40.9244 19.3755 40.8719 19.3484 40.8255 19.324ZM23.3466 25.8687V25.8675C23.3466 25.7187 23.336 25.5228 23.2044 25.3832C23.0668 25.2372 22.8675 25.2236 22.7075 25.2272V25.2271L22.7028 25.2273C22.0333 25.2549 21.3638 25.2549 20.6944 25.2273L20.6939 25.2273C20.5159 25.2203 20.3007 25.231 20.1529 25.3828C20.009 25.5305 19.9985 25.7426 20.0018 25.9124C20.0122 28.2372 20.0109 30.5579 20.0096 32.8813C20.0092 33.6565 20.0088 34.4319 20.0088 35.2079C20.0088 35.7971 20.0092 36.3866 20.0096 36.9762C20.0109 38.7452 20.0122 40.5152 20.0018 42.2815V42.283C20.0018 42.4317 20.0124 42.6276 20.1439 42.7672C20.2815 42.9132 20.4808 42.9268 20.6408 42.9233L20.6456 42.9231C21.315 42.8955 21.9845 42.8955 22.654 42.9231L22.6545 42.9231C22.8324 42.9301 23.0476 42.9194 23.1955 42.7676C23.3393 42.6199 23.3498 42.4078 23.3465 42.238C23.3361 40.211 23.3374 38.1843 23.3387 36.1567C23.3391 35.4804 23.3396 34.804 23.3396 34.1275C23.3396 33.4388 23.3391 32.7502 23.3387 32.0616C23.3374 29.9969 23.3361 27.9329 23.3466 25.8687ZM48.824 25.8687V25.8675L46.1128 42.6733L46.1231 42.9231C46.1232 42.9231 46.1234 42.9231 46.1235 42.9231C46.7928 42.8955 47.4621 42.8955 48.1315 42.9231L48.132 42.9231C48.3099 42.9301 48.5251 42.9194 48.673 42.7676C48.8168 42.6199 48.8273 42.4078 48.824 42.238C48.8136 40.211 48.8149 38.1843 48.8162 36.1567C48.8166 35.4804 48.8171 34.804 48.8171 34.1275C48.8171 33.4388 48.8166 32.7502 48.8162 32.0616C48.8149 29.9969 48.8136 27.9329 48.824 25.8687ZM45.6304 25.3898C45.4865 25.5375 45.476 25.7496 45.4793 25.9194L48.1906 25.4841L48.1803 25.2343C48.1801 25.2343 48.18 25.2343 48.1798 25.2343C47.5105 25.2619 46.8412 25.2619 46.1719 25.2343L46.1714 25.2343C45.9934 25.2273 45.7782 25.238 45.6304 25.3898Z" stroke="url(#paint3_linear_133_320)" stroke-width="0.5"/>
</g>
<path d="M42.875 34.714L31 29.089L19.125 34.714L16 47.214L24.125 57.839H37.875L46 47.839L42.875 34.714Z" fill="white"/>
<g filter="url(#filter1_bii_133_320)">
<path d="M28.7544 46.5815L28.7632 46.594L27.5144 49.6102C26.3161 48.8431 25.4044 47.702 24.9207 46.364L28.1432 45.8177L28.1482 45.824C28.246 45.806 28.3469 45.8149 28.4401 45.8497C28.5333 45.8845 28.6153 45.9439 28.6773 46.0217C28.7394 46.0994 28.7793 46.1925 28.7926 46.2911C28.806 46.3897 28.7923 46.49 28.7532 46.5815H28.7544ZM27.7132 43.9202C27.8091 43.894 27.8961 43.8422 27.965 43.7703C28.0338 43.6985 28.0819 43.6094 28.1041 43.5124C28.1263 43.4155 28.1217 43.3143 28.091 43.2197C28.0602 43.1251 28.0044 43.0406 27.9294 42.9752L27.9319 42.9615L25.4807 40.769C24.7329 41.9862 24.4118 43.4178 24.5682 44.8377L27.7107 43.9315L27.7132 43.9202ZM29.1444 41.4452C29.2248 41.5039 29.3197 41.5397 29.4189 41.5487C29.518 41.5577 29.6178 41.5396 29.7075 41.4964C29.7972 41.4531 29.8735 41.3864 29.9282 41.3032C29.9829 41.22 30.014 41.1235 30.0182 41.024L30.0307 41.0177L30.2182 37.7427C28.7985 37.9087 27.4746 38.5429 26.4557 39.5452L29.1394 41.449L29.1444 41.4452ZM30.0944 44.8827L30.9982 45.319L31.9007 44.8852L32.1257 43.9102L31.5007 43.1315H30.4957L29.8707 43.9102L30.0944 44.8827ZM31.9694 41.014C31.9736 41.1136 32.0049 41.2101 32.0597 41.2934C32.1146 41.3766 32.191 41.4433 32.2809 41.4865C32.3708 41.5296 32.4707 41.5475 32.5699 41.5383C32.6692 41.529 32.7641 41.493 32.8444 41.434L32.8544 41.4377L35.5219 39.5465C34.5065 38.552 33.1924 37.9187 31.7819 37.744L31.9669 41.0127L31.9694 41.014ZM45.5644 48.4765L38.3482 57.4527C38.1602 57.6852 37.9224 57.8726 37.6525 58.0011C37.3825 58.1296 37.0872 58.1959 36.7882 58.1952L25.2119 58.199C24.9129 58.1992 24.6177 58.1324 24.3479 58.0035C24.0782 57.8745 23.8408 57.6868 23.6532 57.454L16.4332 48.479C16.2474 48.2466 16.1164 47.9753 16.05 47.6853C15.9835 47.3953 15.9833 47.0941 16.0494 46.804L18.6244 35.6102C18.7594 35.0227 19.1557 34.5302 19.7032 34.269L30.1307 29.2852C30.401 29.156 30.6967 29.089 30.9963 29.089C31.2959 29.089 31.5916 29.156 31.8619 29.2852L42.2932 34.2665C42.8407 34.5277 43.2369 35.0215 43.3719 35.6077L45.9494 46.8015C46.0844 47.389 45.9432 48.0052 45.5644 48.4765ZM41.4532 45.9052C41.4007 45.8927 41.3244 45.8727 41.2719 45.8627C41.0544 45.8215 40.8782 45.8315 40.6732 45.8152C40.2357 45.769 39.8757 45.7315 39.5544 45.6302C39.4232 45.5802 39.3294 45.424 39.2844 45.3602L39.0332 45.2865C39.1671 44.3149 39.1226 43.3271 38.9019 42.3715C38.6809 41.4061 38.2843 40.4897 37.7319 39.6677C37.7969 39.609 37.9194 39.5015 37.9532 39.469C37.9632 39.3565 37.9544 39.2402 38.0707 39.1165C38.3169 38.8852 38.6257 38.694 38.9994 38.464C39.1769 38.359 39.3407 38.2927 39.5182 38.1615C39.5582 38.1315 39.6132 38.084 39.6557 38.0502C39.9557 37.8115 40.0244 37.4002 39.8094 37.1302C39.5944 36.8602 39.1769 36.8352 38.8782 37.074C38.8357 37.1077 38.7782 37.1515 38.7394 37.184C38.5719 37.329 38.4682 37.4715 38.3269 37.6215C38.0194 37.934 37.7644 38.194 37.4857 38.3827C37.3644 38.4527 37.1869 38.429 37.1069 38.424L36.8694 38.5927C35.5022 37.158 33.6607 36.2683 31.6869 36.089L31.6719 35.8102C31.5907 35.7327 31.4932 35.6665 31.4682 35.4977C31.4407 35.1627 31.4869 34.8015 31.5394 34.3665C31.5682 34.1627 31.6157 33.994 31.6244 33.7727C31.6257 33.7227 31.6232 33.649 31.6232 33.5952C31.6232 33.2127 31.3432 32.9015 30.9982 32.9015C30.6544 32.9015 30.3744 33.2127 30.3744 33.5952L30.3757 33.6127C30.3757 33.664 30.3732 33.7277 30.3757 33.7727C30.3832 33.994 30.4307 34.1627 30.4594 34.3665C30.5119 34.8015 30.5569 35.1627 30.5294 35.499C30.4939 35.6235 30.4237 35.7354 30.3269 35.8215L30.3119 36.0852C28.3255 36.2447 26.4694 37.1371 25.1044 38.589C25.0287 38.5366 24.9537 38.4833 24.8794 38.429C24.7669 38.444 24.6544 38.479 24.5082 38.3927C24.2294 38.2052 23.9744 37.9452 23.6669 37.6327C23.5257 37.4827 23.4232 37.3402 23.2557 37.1965C23.2104 37.1586 23.1641 37.1219 23.1169 37.0865C22.9933 36.9863 22.8408 36.9285 22.6819 36.9215C22.5875 36.9165 22.4933 36.9338 22.4069 36.972C22.3204 37.0102 22.2442 37.0683 22.1844 37.1415C21.9694 37.4115 22.0382 37.824 22.3382 38.0627L22.3469 38.069L22.4769 38.1727C22.6544 38.304 22.8169 38.3715 22.9944 38.4752C23.3682 38.7065 23.6769 38.8977 23.9232 39.1277C24.0182 39.2302 24.0357 39.4102 24.0482 39.4877L24.2482 39.6665C23.1436 41.3227 22.6896 43.3285 22.9732 45.299L22.7132 45.374C22.6444 45.464 22.5469 45.604 22.4444 45.6452C22.1232 45.7465 21.7619 45.7827 21.3257 45.829C21.1207 45.8465 20.9444 45.8365 20.7257 45.8777C20.6794 45.8865 20.6132 45.9027 20.5594 45.9152L20.5544 45.9177L20.5457 45.9202C20.1769 46.009 19.9407 46.3477 20.0169 46.6802C20.0932 47.014 20.4532 47.2165 20.8232 47.1365L20.8319 47.1352L20.8444 47.1315L21.0057 47.0952C21.2182 47.0377 21.3732 46.954 21.5657 46.8802C21.9782 46.7327 22.3207 46.609 22.6532 46.5602C22.7932 46.549 22.9407 46.6465 23.0132 46.6865L23.2844 46.6402C23.8954 48.5278 25.1758 50.1267 26.8844 51.1352L26.7719 51.4077C26.8132 51.5127 26.8582 51.6565 26.8269 51.7602C26.7057 52.0752 26.4982 52.4065 26.2619 52.7765C26.1482 52.9465 26.0307 53.079 25.9269 53.2752C25.9019 53.3215 25.8707 53.394 25.8469 53.4427C25.6869 53.7865 25.8044 54.1815 26.1132 54.3302C26.4232 54.4802 26.8082 54.3215 26.9757 53.9777V53.9752C27.0007 53.9265 27.0332 53.8627 27.0532 53.8165C27.1407 53.614 27.1707 53.4402 27.2332 53.244C27.3982 52.829 27.4894 52.394 27.7169 52.1227C27.7794 52.0477 27.8794 52.0202 27.9857 51.9915L28.1269 51.7352C29.98 52.4493 32.0314 52.4546 33.8882 51.7502L34.0207 51.9902C34.1282 52.0252 34.2457 52.0427 34.3407 52.184C34.5107 52.474 34.6269 52.8177 34.7682 53.234C34.8307 53.429 34.8607 53.6027 34.9494 53.8052C34.9694 53.8515 35.0032 53.9177 35.0269 53.9665C35.1932 54.3115 35.5794 54.469 35.8894 54.319C36.1982 54.1715 36.3157 53.7752 36.1557 53.4315C36.1307 53.3827 36.0994 53.3115 36.0744 53.264C35.9707 53.069 35.8532 52.9377 35.7394 52.7665C35.5019 52.3965 35.3069 52.0902 35.1857 51.7752C35.1357 51.6127 35.1944 51.5127 35.2332 51.4077C35.2107 51.3802 35.1594 51.2277 35.1294 51.1552C36.8442 50.1389 38.1255 48.5275 38.7294 46.6277C38.8094 46.6402 38.9494 46.6652 38.9957 46.6752C39.0894 46.6127 39.1757 46.5327 39.3457 46.5452C39.6782 46.594 40.0207 46.7177 40.4332 46.8652C40.6257 46.9402 40.7794 47.0252 40.9932 47.0815C41.0382 47.094 41.1032 47.1052 41.1557 47.1165L41.1669 47.1202L41.1757 47.1215C41.5469 47.2015 41.9057 46.999 41.9819 46.6652C42.0569 46.3327 41.8219 45.994 41.4532 45.9052ZM36.4994 40.7702L34.0619 42.9527V42.959C33.9866 43.0243 33.9305 43.1089 33.8995 43.2036C33.8685 43.2984 33.8639 43.3998 33.8861 43.497C33.9083 43.5942 33.9565 43.6835 34.0256 43.7554C34.0947 43.8273 34.182 43.8791 34.2782 43.9052L34.2819 43.9177L37.4394 44.8277C37.508 44.1275 37.4624 43.4208 37.3044 42.7352C37.1456 42.0401 36.8736 41.3759 36.4994 40.769V40.7702ZM31.4832 47.4265C31.4349 47.3354 31.3619 47.2599 31.2725 47.2086C31.1832 47.1572 31.0811 47.1323 30.9782 47.1365C30.8819 47.1401 30.7884 47.1689 30.7067 47.22C30.6251 47.2711 30.5584 47.3427 30.5132 47.4277H30.5107L28.9257 50.2927C30.2732 50.7524 31.7348 50.7538 33.0832 50.2965L31.4957 47.4265H31.4832ZM33.8432 45.8102C33.7287 45.7891 33.6106 45.8049 33.5057 45.8552C33.3772 45.9166 33.2775 46.0254 33.2277 46.1588C33.1778 46.2921 33.1815 46.4396 33.2382 46.5702L33.2344 46.5752L34.4969 49.6227C35.7032 48.8526 36.6185 47.7024 37.0982 46.354L33.8482 45.804L33.8432 45.8102Z" fill="url(#paint4_linear_133_320)"/>
</g>
<defs>
<filter id="filter0_bii_133_320" x="-1" y="-7" width="62.3333" height="62.3333" filterUnits="userSpaceOnUse" color-interpolation-filters="sRGB">
<feFlood flood-opacity="0" result="BackgroundImageFix"/>
<feGaussianBlur in="BackgroundImageFix" stdDeviation="3.5"/>
<feComposite in2="SourceAlpha" operator="in" result="effect1_backgroundBlur_133_320"/>
<feBlend mode="normal" in="SourceGraphic" in2="effect1_backgroundBlur_133_320" result="shape"/>
<feColorMatrix in="SourceAlpha" type="matrix" values="0 0 0 0 0 0 0 0 0 0 0 0 0 0 0 0 0 0 127 0" result="hardAlpha"/>
<feOffset dy="4"/>
<feGaussianBlur stdDeviation="2"/>
<feComposite in2="hardAlpha" operator="arithmetic" k2="-1" k3="1"/>
<feColorMatrix type="matrix" values="0 0 0 0 1 0 0 0 0 1 0 0 0 0 1 0 0 0 0.31 0"/>
<feBlend mode="normal" in2="shape" result="effect2_innerShadow_133_320"/>
<feColorMatrix in="SourceAlpha" type="matrix" values="0 0 0 0 0 0 0 0 0 0 0 0 0 0 0 0 0 0 127 0" result="hardAlpha"/>
<feOffset dy="4"/>
<feGaussianBlur stdDeviation="2"/>
<feComposite in2="hardAlpha" operator="arithmetic" k2="-1" k3="1"/>
<feColorMatrix type="matrix" values="0 0 0 0 1 0 0 0 0 1 0 0 0 0 1 0 0 0 0.2 0"/>
<feBlend mode="normal" in2="effect2_innerShadow_133_320" result="effect3_innerShadow_133_320"/>
</filter>
<filter id="filter1_bii_133_320" x="9" y="22.089" width="43.9995" height="43.11" filterUnits="userSpaceOnUse" color-interpolation-filters="sRGB">
<feFlood flood-opacity="0" result="BackgroundImageFix"/>
<feGaussianBlur in="BackgroundImageFix" stdDeviation="3.5"/>
<feComposite in2="SourceAlpha" operator="in" result="effect1_backgroundBlur_133_320"/>
<feBlend mode="normal" in="SourceGraphic" in2="effect1_backgroundBlur_133_320" result="shape"/>
<feColorMatrix in="SourceAlpha" type="matrix" values="0 0 0 0 0 0 0 0 0 0 0 0 0 0 0 0 0 0 127 0" result="hardAlpha"/>
<feOffset dy="4"/>
<feGaussianBlur stdDeviation="2"/>
<feComposite in2="hardAlpha" operator="arithmetic" k2="-1" k3="1"/>
<feColorMatrix type="matrix" values="0 0 0 0 1 0 0 0 0 1 0 0 0 0 1 0 0 0 0.31 0"/>
<feBlend mode="normal" in2="shape" result="effect2_innerShadow_133_320"/>
<feColorMatrix in="SourceAlpha" type="matrix" values="0 0 0 0 0 0 0 0 0 0 0 0 0 0 0 0 0 0 127 0" result="hardAlpha"/>
<feOffset dy="4"/>
<feGaussianBlur stdDeviation="2"/>
<feComposite in2="hardAlpha" operator="arithmetic" k2="-1" k3="1"/>
<feColorMatrix type="matrix" values="0 0 0 0 1 0 0 0 0 1 0 0 0 0 1 0 0 0 0.2 0"/>
<feBlend mode="normal" in2="effect2_innerShadow_133_320" result="effect3_innerShadow_133_320"/>
</filter>
<linearGradient id="paint0_linear_133_320" x1="30.1667" y1="22.5" x2="30.1667" y2="46.6667" gradientUnits="userSpaceOnUse">
<stop stop-color="#448BF4"/>
<stop offset="1" stop-color="#64A8F8"/>
</linearGradient>
<linearGradient id="paint1_linear_133_320" x1="30" y1="2" x2="30" y2="7" gradientUnits="userSpaceOnUse">
<stop stop-color="#448BF4"/>
<stop offset="1" stop-color="#64A8F8"/>
</linearGradient>
<linearGradient id="paint2_linear_133_320" x1="42.7158" y1="2.75895" x2="-12.0855" y2="67.0554" gradientUnits="userSpaceOnUse">
<stop offset="0.0419" stop-color="#468DF5"/>
<stop offset="0.3603" stop-color="#7FBFFA"/>
</linearGradient>
<linearGradient id="paint3_linear_133_320" x1="52.9709" y1="4.93878" x2="10.2194" y2="41.8585" gradientUnits="userSpaceOnUse">
<stop offset="0.208333" stop-color="white" stop-opacity="0.85"/>
<stop offset="1" stop-color="#75BCFF" stop-opacity="0.17"/>
</linearGradient>
<linearGradient id="paint4_linear_133_320" x1="48.747" y1="32.4343" x2="33.3439" y2="61.4881" gradientUnits="userSpaceOnUse">
<stop offset="0.013763" stop-color="#075AD6"/>
<stop offset="1" stop-color="#64A8F8"/>
</linearGradient>
</defs>
</svg>
