<svg width="29" height="29" viewBox="0 0 29 29" fill="none" xmlns="http://www.w3.org/2000/svg">
<circle cx="14.5" cy="14.5" r="14.5" fill="#002958"/>
<path d="M19.968 19.9714H17.6678V16.3663C17.6678 15.5066 17.6506 14.4002 16.4681 14.4002C15.2693 14.4002 15.0863 15.3358 15.0863 16.3033V19.9714H12.7853V12.5583H14.9948V13.5681H15.025C15.334 12.9864 16.0849 12.371 17.2069 12.371C19.5373 12.371 19.9689 13.9056 19.9689 15.9019V19.9714H19.968ZM10.1874 11.5442C10.0118 11.5444 9.83789 11.51 9.67563 11.4429C9.51337 11.3757 9.36596 11.2773 9.24183 11.1531C9.11771 11.0289 9.01932 10.8814 8.95231 10.7191C8.8853 10.5568 8.85098 10.3828 8.85132 10.2072C8.85149 9.94299 8.93002 9.68473 9.07697 9.46511C9.22392 9.24549 9.4327 9.07437 9.6769 8.97341C9.9211 8.87244 10.1898 8.84616 10.4489 8.89788C10.708 8.9496 10.946 9.077 11.1327 9.26397C11.3195 9.45095 11.4466 9.68909 11.498 9.9483C11.5493 10.2075 11.5227 10.4761 11.4214 10.7202C11.3201 10.9643 11.1488 11.1728 10.929 11.3195C10.7091 11.4662 10.4508 11.5443 10.1865 11.5442H10.1874ZM11.3405 19.9714H9.03343V12.5583H11.3414V19.9714H11.3405ZM21.1202 6.73242H7.87948C7.24424 6.73242 6.73242 7.23302 6.73242 7.85186V21.1487C6.73242 21.7675 7.2451 22.2681 7.87861 22.2681H21.1168C21.7503 22.2681 22.2681 21.7675 22.2681 21.1487V7.85186C22.2681 7.23302 21.7503 6.73242 21.1168 6.73242H21.1194H21.1202Z" fill="#F8F9FA"/>
</svg>
