<svg width="73" height="37" viewBox="0 0 73 37" fill="none" xmlns="http://www.w3.org/2000/svg">
<g clip-path="url(#clip0_1115_5245)">
<path d="M28.491 20.4279C28.4542 20.8598 28.1919 21.1122 27.9736 21.2473C27.281 21.5859 26.5039 21.7787 25.6784 21.7787C22.7957 21.7787 20.4592 19.4681 20.4592 16.6163C20.4592 13.7644 22.7957 11.4538 25.6784 11.4538C26.1743 11.4538 26.6531 11.5249 27.1067 11.6529V8.82329C26.6423 8.74152 26.1653 8.69531 25.6784 8.69531C21.256 8.69531 17.6709 12.2412 17.6709 16.6172C17.6709 20.9931 21.256 24.539 25.6784 24.539C27.6726 24.539 29.5366 23.7605 30.6532 22.7909C30.7224 22.7145 30.7988 22.6443 30.8976 22.4888C30.8976 22.4888 30.9497 22.4079 30.9497 22.407C30.9811 22.3555 31.0494 22.2399 31.0575 22.2239C31.1105 22.1093 31.159 21.9796 31.1949 21.8302C31.1958 21.8267 31.1967 21.824 31.1976 21.8187C31.2012 21.8036 31.2039 21.7858 31.2066 21.7698C31.2129 21.7414 31.2174 21.7129 31.2228 21.6836C31.2299 21.6383 31.2371 21.593 31.2425 21.545C31.2479 21.505 31.256 21.3841 31.2587 21.3432V18.4354L28.491 14.4843V20.4261V20.4279Z" fill="#1F96D2"/>
<path d="M44.5072 9.19141C43.9476 9.40914 42.6324 10.033 41.5976 11.4078C41.5949 11.4051 41.5931 11.4025 41.5904 11.4016L36.4997 18.6489L31.409 11.4016C31.409 11.4016 31.4045 11.4051 31.4018 11.4078C30.367 10.033 29.0518 9.40914 28.4922 9.19141V12.0868L36.4997 23.4888L44.5072 12.0868V9.19141Z" fill="#1F96D2"/>
<path d="M47.3195 8.69531C46.8318 8.69531 46.3548 8.74153 45.8912 8.82417V11.6529C46.3458 11.5249 46.8237 11.4538 47.3195 11.4538C50.2013 11.4538 52.5378 13.7653 52.5378 16.6163C52.5378 19.4672 50.2013 21.7796 47.3195 21.7796C46.494 21.7796 45.7179 21.5859 45.0244 21.2473C44.8061 21.1113 44.5447 20.8607 44.5069 20.4279V14.4861L41.7393 18.4372V21.345C41.7429 21.3859 41.7509 21.5068 41.7554 21.5468C41.7608 21.5947 41.768 21.6401 41.7752 21.6854C41.7806 21.7138 41.7851 21.7432 41.7914 21.7707C41.7941 21.7867 41.7967 21.8045 41.8003 21.8196C41.8003 21.8231 41.8012 21.8267 41.8021 21.8311C41.839 21.9796 41.8866 22.1093 41.9396 22.2248C41.9468 22.2408 42.0159 22.3564 42.0474 22.4079L42.0995 22.4888C42.1974 22.6452 42.2755 22.7154 42.3438 22.7909C43.4604 23.7614 45.3244 24.539 47.3186 24.539C51.741 24.539 55.3261 20.9922 55.3261 16.6172C55.3261 12.2421 51.7419 8.69531 47.3186 8.69531" fill="#1F96D2"/>
<path d="M31.4103 9.01761C31.333 8.6639 31.2908 8.29865 31.2908 7.92184C31.2908 5.07624 33.6228 2.77007 36.4983 2.77007C39.3738 2.77007 41.7058 5.07712 41.7058 7.92184C41.7058 8.29865 41.6645 8.6639 41.5863 9.01761C42.4442 8.39818 43.4314 7.94406 44.5004 7.70056C44.3827 3.42859 40.8461 0 36.4992 0C32.1523 0 28.6156 3.42859 28.4971 7.70145C29.5652 7.94495 30.5524 8.39907 31.4103 9.01849" fill="#1F96D2"/>
<path d="M-7.82558e-05 32.856V32.8329C-7.82558e-05 30.5419 1.73455 28.6641 4.2022 28.6641C5.70327 28.6641 6.61146 29.1822 7.39119 29.9189L6.47132 30.9667C5.81915 30.3677 5.12117 29.9651 4.18962 29.9651C2.63016 29.9651 1.50099 31.2315 1.50099 32.8089V32.8321C1.50099 34.4095 2.63016 35.699 4.18962 35.699C5.19034 35.699 5.83083 35.2955 6.52882 34.6512L7.44868 35.5728C6.59888 36.4482 5.66734 37.0009 4.14291 37.0009C1.76869 37.0009 -0.000976562 35.1702 -0.000976562 32.8552L-7.82558e-05 32.856Z" fill="#1F96D2"/>
<path d="M8.95102 28.8008H10.4754L12.9548 32.6124L15.4341 28.8008H16.9585V36.8613H15.5266V31.0812L12.9539 34.8812H12.9072L10.3578 31.1043V36.8622H8.94922V28.8017L8.95102 28.8008Z" fill="#1F96D2"/>
<path d="M18.6923 32.856V32.8329C18.6923 30.5419 20.4269 28.6641 22.8946 28.6641C24.3957 28.6641 25.3038 29.1822 26.0836 29.9189L25.1637 30.9667C24.5115 30.3677 23.8136 29.9651 22.882 29.9651C21.3225 29.9651 20.1934 31.2315 20.1934 32.8089V32.8321C20.1934 34.4095 21.3225 35.699 22.882 35.699C23.8827 35.699 24.5232 35.2955 25.2212 34.6512L26.1411 35.5728C25.2913 36.4482 24.3597 37.0009 22.8353 37.0009C20.4611 37.0009 18.6914 35.1702 18.6914 32.8552L18.6923 32.856Z" fill="#1F96D2"/>
<path d="M30.7734 32.856V32.8329C30.7734 30.5419 32.508 28.6641 34.9756 28.6641C36.4767 28.6641 37.3849 29.1822 38.1646 29.9189L37.2448 30.9667C36.5926 30.3677 35.8946 29.9651 34.9631 29.9651C33.4036 29.9651 32.2744 31.2315 32.2744 32.8089V32.8321C32.2744 34.4095 33.4036 35.699 34.9631 35.699C35.9638 35.699 36.6043 35.2955 37.3023 34.6512L38.2221 35.5728C37.3723 36.4482 36.4408 37.0009 34.9164 37.0009C32.5421 37.0009 30.7725 35.1702 30.7725 32.8552L30.7734 32.856Z" fill="#1F96D2"/>
<path d="M39.7236 28.8008H41.1555V35.5718H45.4387V36.8613H39.7236V28.8008Z" fill="#1F96D2"/>
<path d="M46.5674 32.856V32.8329C46.5674 30.565 48.3361 28.6641 50.8388 28.6641C53.3415 28.6641 55.0869 30.541 55.0869 32.8098V32.8329C55.0869 35.1018 53.3173 37.0018 50.8155 37.0018C48.3137 37.0018 46.5674 35.1249 46.5674 32.856ZM53.5859 32.856V32.8329C53.5859 31.2671 52.4333 29.966 50.8155 29.966C49.1976 29.966 48.0684 31.244 48.0684 32.8098V32.8329C48.0684 34.3988 49.221 35.6999 50.8388 35.6999C52.4567 35.6999 53.5859 34.4219 53.5859 32.856Z" fill="#1F96D2"/>
<path d="M56.6943 33.4416V28.8008H58.1262V33.3838C58.1262 34.8812 58.906 35.6873 60.1861 35.6873C61.4661 35.6873 62.2342 34.9275 62.2342 33.4416V28.8008H63.6661V33.3722C63.6661 35.7788 62.2926 36.9883 60.1627 36.9883C58.0328 36.9883 56.6943 35.7788 56.6943 33.4416Z" fill="#1F96D2"/>
<path d="M65.6318 28.8008H68.6699C71.231 28.8008 72.9997 30.54 72.9997 32.8079V32.831C72.9997 35.0999 71.231 36.8613 68.6699 36.8613H65.6318V28.8008ZM68.6699 35.5718C70.3812 35.5718 71.4987 34.4316 71.4987 32.8541V32.831C71.4987 31.2536 70.3812 30.0903 68.6699 30.0903H67.0637V35.5718H68.6699Z" fill="#1F96D2"/>
</g>
<defs>
<clipPath id="clip0_1115_5245">
<rect width="73" height="37" fill="white"/>
</clipPath>
</defs>
</svg>
