<svg width="125" height="64" viewBox="0 0 125 64" fill="none" xmlns="http://www.w3.org/2000/svg">
<g id="logo cmc  1" clip-path="url(#clip0_1115_5324)">
<g id="Group 37388">
<g id="Group">
<path id="Vector" d="M48.7864 35.3372C48.7233 36.0842 48.2741 36.5208 47.9004 36.7545C46.7144 37.3401 45.3839 37.6737 43.9703 37.6737C39.0342 37.6737 35.0333 33.677 35.0333 28.7441C35.0333 23.8112 39.0342 19.8145 43.9703 19.8145C44.8194 19.8145 45.6392 19.9374 46.416 20.1588V15.2643C45.6208 15.1229 44.804 15.043 43.9703 15.043C36.3977 15.043 30.2588 21.1764 30.2588 28.7456C30.2588 36.3148 36.3977 42.4483 43.9703 42.4483C47.3851 42.4483 50.5768 41.1017 52.4888 39.4246C52.6072 39.2924 52.738 39.1709 52.9072 38.9019C52.9072 38.9019 52.9964 38.762 52.9964 38.7605C53.0502 38.6714 53.1671 38.4715 53.181 38.4438C53.2717 38.2455 53.3548 38.0211 53.4163 37.7629C53.4179 37.7567 53.4194 37.7521 53.4209 37.7429C53.4271 37.7167 53.4317 37.686 53.4363 37.6583C53.4471 37.6091 53.4548 37.5599 53.464 37.5092C53.4763 37.4308 53.4886 37.3524 53.4979 37.2694C53.5071 37.2002 53.5209 36.9912 53.5256 36.9205V31.8907L48.7864 25.0563V35.3341V35.3372Z" fill="#1F96D2"/>
<path id="Vector_2" d="M76.2111 15.8984C75.2528 16.2751 73.0008 17.3542 71.2288 19.7322C71.2242 19.7276 71.2211 19.723 71.2165 19.7215L62.4996 32.2574L53.7826 19.7215C53.7826 19.7215 53.7749 19.7276 53.7703 19.7322C51.9983 17.3542 49.7464 16.2751 48.7881 15.8984V20.9067L62.4996 40.629L76.2111 20.9067V15.8984Z" fill="#1F96D2"/>
<path id="Vector_3" d="M81.027 15.043C80.1917 15.043 79.3749 15.1229 78.5812 15.2659V20.1588C79.3596 19.9374 80.1779 19.8145 81.027 19.8145C85.9615 19.8145 89.9623 23.8127 89.9623 28.7441C89.9623 33.6754 85.9615 37.6752 81.027 37.6752C79.6134 37.6752 78.2844 37.3401 77.0969 36.7545C76.7231 36.5193 76.2755 36.0858 76.2109 35.3372V25.0594L71.4717 31.8938V36.9235C71.4778 36.9943 71.4917 37.2033 71.4994 37.2725C71.5086 37.3555 71.5209 37.4339 71.5332 37.5123C71.5424 37.5615 71.5501 37.6122 71.5609 37.6599C71.5655 37.6875 71.5701 37.7183 71.5763 37.7444C71.5763 37.7506 71.5778 37.7567 71.5794 37.7644C71.6424 38.0211 71.7239 38.2455 71.8147 38.4454C71.827 38.473 71.9454 38.6729 71.9993 38.762L72.0885 38.9019C72.2562 39.1725 72.39 39.2939 72.5069 39.4246C74.4189 41.1032 77.6106 42.4483 81.0254 42.4483C88.598 42.4483 94.7369 36.3133 94.7369 28.7456C94.7369 21.178 88.5995 15.043 81.0254 15.043" fill="#1F96D2"/>
<path id="Vector_4" d="M53.7852 15.598C53.653 14.9862 53.5807 14.3544 53.5807 13.7026C53.5807 8.78052 57.5738 4.79147 62.4976 4.79147C67.4214 4.79147 71.4145 8.78205 71.4145 13.7026C71.4145 14.3544 71.3438 14.9862 71.2099 15.598C72.6789 14.5266 74.3694 13.7411 76.1998 13.3199C75.9983 5.93054 69.9425 0 62.4991 0C55.0558 0 48.9999 5.93054 48.7969 13.3214C50.6258 13.7426 52.3163 14.5281 53.7852 15.5996" fill="#1F96D2"/>
</g>
<g id="Group_2">
<path id="Vector_5" d="M-0.000414929 56.8291V56.7892C-0.000414929 52.8262 2.96984 49.5781 7.19527 49.5781C9.76559 49.5781 11.3207 50.4743 12.6559 51.7487L11.0808 53.561C9.96402 52.5249 8.76884 51.8286 7.17373 51.8286C4.50342 51.8286 2.56991 54.0191 2.56991 56.7477V56.7876C2.56991 59.5162 4.50342 61.7466 7.17373 61.7466C8.88728 61.7466 9.98402 61.0488 11.1792 59.9343L12.7543 61.5284C11.2992 63.0425 9.70407 63.9986 7.09375 63.9986C3.02829 63.9986 -0.00195312 60.832 -0.00195312 56.8276L-0.000414929 56.8291Z" fill="#1F96D2"/>
<path id="Vector_6" d="M15.3263 49.8164H17.9366L22.1821 56.4095L26.4275 49.8164H29.0378V63.7589H26.5859V53.7609L22.1805 60.334H22.1005L17.7351 53.8008V63.7604H15.3232V49.8179L15.3263 49.8164Z" fill="#1F96D2"/>
<path id="Vector_7" d="M32.0064 56.8291V56.7892C32.0064 52.8262 34.9767 49.5781 39.2021 49.5781C41.7724 49.5781 43.3275 50.4743 44.6627 51.7487L43.0876 53.561C41.9709 52.5249 40.7757 51.8286 39.1806 51.8286C36.5103 51.8286 34.5767 54.0191 34.5767 56.7477V56.7876C34.5767 59.5162 36.5103 61.7466 39.1806 61.7466C40.8941 61.7466 41.9909 61.0488 43.186 59.9343L44.7611 61.5284C43.306 63.0425 41.7109 63.9986 39.1006 63.9986C35.0351 63.9986 32.0049 60.832 32.0049 56.8276L32.0064 56.8291Z" fill="#1F96D2"/>
<path id="Vector_8" d="M52.6939 56.8291V56.7892C52.6939 52.8262 55.6642 49.5781 59.8896 49.5781C62.4599 49.5781 64.015 50.4743 65.3502 51.7487L63.7751 53.561C62.6584 52.5249 61.4632 51.8286 59.8681 51.8286C57.1978 51.8286 55.2642 54.0191 55.2642 56.7477V56.7876C55.2642 59.5162 57.1978 61.7466 59.8681 61.7466C61.5816 61.7466 62.6784 61.0488 63.8735 59.9343L65.4486 61.5284C63.9935 63.0425 62.3984 63.9986 59.7881 63.9986C55.7226 63.9986 52.6924 60.832 52.6924 56.8276L52.6939 56.8291Z" fill="#1F96D2"/>
<path id="Vector_9" d="M68.0205 49.8164H70.4724V61.5284H77.8065V63.7589H68.0205V49.8164Z" fill="#1F96D2"/>
<path id="Vector_10" d="M79.7383 56.8291V56.7892C79.7383 52.8662 82.767 49.5781 87.0524 49.5781C91.3378 49.5781 94.3265 52.8247 94.3265 56.7492V56.7892C94.3265 60.7136 91.2963 64.0002 87.0124 64.0002C82.7285 64.0002 79.7383 60.7536 79.7383 56.8291ZM91.7562 56.8291V56.7892C91.7562 54.0806 89.7827 51.8301 87.0124 51.8301C84.2421 51.8301 82.3086 54.0406 82.3086 56.7492V56.7892C82.3086 59.4977 84.2821 61.7482 87.0524 61.7482C89.8227 61.7482 91.7562 59.5377 91.7562 56.8291Z" fill="#1F96D2"/>
<path id="Vector_11" d="M97.0781 57.8437V49.8164H99.53V57.7438C99.53 60.334 100.865 61.7282 103.057 61.7282C105.249 61.7282 106.564 60.4139 106.564 57.8437V49.8164H109.016V57.7238C109.016 61.8865 106.664 63.9787 103.017 63.9787C99.37 63.9787 97.0781 61.8865 97.0781 57.8437Z" fill="#1F96D2"/>
<path id="Vector_12" d="M112.383 49.8164H117.585C121.97 49.8164 124.999 52.8247 124.999 56.7477V56.7876C124.999 60.7121 121.97 63.7589 117.585 63.7589H112.383V49.8164ZM117.585 61.5284C120.515 61.5284 122.429 59.5561 122.429 56.8276V56.7876C122.429 54.0591 120.515 52.0469 117.585 52.0469H114.835V61.5284H117.585Z" fill="#1F96D2"/>
</g>
</g>
</g>
<defs>
<clipPath id="clip0_1115_5324">
<rect width="125" height="64" fill="white"/>
</clipPath>
</defs>
</svg>
