<svg width="60" height="60" viewBox="0 0 60 60" fill="none" xmlns="http://www.w3.org/2000/svg">
<path fill-rule="evenodd" clip-rule="evenodd" d="M53.213 31.8095C53.213 32.2319 53.1908 32.6491 53.1476 33.06C56.577 34.4296 59 37.7818 59 41.7C59 46.8362 54.8363 51 49.7 51H34.82H32.34H19.94C15.4886 51 11.88 47.3914 11.88 42.94C11.88 38.9759 14.7417 35.6803 18.5119 35.0061C18.0463 34.0388 17.7854 32.9543 17.7854 31.8089C17.7854 27.7325 21.0899 24.428 25.1663 24.428C27.3513 24.428 29.3146 25.3774 30.666 26.8862C32.5325 22.8222 36.6384 20 41.4035 20C47.9257 20 53.213 25.2873 53.213 31.8095Z" fill="url(#paint0_linear_133_363)"/>
<g filter="url(#filter0_bii_133_363)">
<mask id="path-2-inside-1_133_363" fill="white">
<path fill-rule="evenodd" clip-rule="evenodd" d="M53.0006 18.1415C53.0006 18.5974 52.9804 19.0486 52.941 19.4943C56.9105 21.5355 59.6258 25.6721 59.6258 30.4429C59.6258 37.238 54.1173 42.7465 47.3223 42.7465H29.6061C29.5175 42.7487 29.4285 42.7498 29.3393 42.7498H10.4107C4.66103 42.7498 0 38.0888 0 32.3391C0 27.2627 3.6334 23.0348 8.4415 22.1144C7.88234 20.9066 7.57031 19.5611 7.57031 18.1427C7.57031 12.9157 11.8076 8.67838 17.0346 8.67838C19.837 8.67838 22.355 9.89641 24.0879 11.832C26.4805 6.61899 31.7463 2.99869 37.8577 2.99869C46.2209 2.99869 53.0006 9.77838 53.0006 18.1415Z"/>
</mask>
<path fill-rule="evenodd" clip-rule="evenodd" d="M53.0006 18.1415C53.0006 18.5974 52.9804 19.0486 52.941 19.4943C56.9105 21.5355 59.6258 25.6721 59.6258 30.4429C59.6258 37.238 54.1173 42.7465 47.3223 42.7465H29.6061C29.5175 42.7487 29.4285 42.7498 29.3393 42.7498H10.4107C4.66103 42.7498 0 38.0888 0 32.3391C0 27.2627 3.6334 23.0348 8.4415 22.1144C7.88234 20.9066 7.57031 19.5611 7.57031 18.1427C7.57031 12.9157 11.8076 8.67838 17.0346 8.67838C19.837 8.67838 22.355 9.89641 24.0879 11.832C26.4805 6.61899 31.7463 2.99869 37.8577 2.99869C46.2209 2.99869 53.0006 9.77838 53.0006 18.1415Z" fill="url(#paint1_linear_133_363)" fill-opacity="0.3"/>
<path d="M52.941 19.4943L51.9449 19.4061L51.8855 20.076L52.4837 20.3836L52.941 19.4943ZM29.6061 42.7465V41.7465H29.5935L29.581 41.7468L29.6061 42.7465ZM8.4415 22.1144L8.62953 23.0965L9.88675 22.8558L9.34896 21.6942L8.4415 22.1144ZM24.0879 11.832L23.3429 12.499L24.3604 13.6355L24.9968 12.2491L24.0879 11.832ZM53.9371 19.5825C53.9791 19.1075 54.0006 18.6269 54.0006 18.1415H52.0006C52.0006 18.568 51.9817 18.9897 51.9449 19.4061L53.9371 19.5825ZM60.6258 30.4429C60.6258 25.2829 57.6879 20.8108 53.3983 18.605L52.4837 20.3836C56.133 22.2602 58.6258 26.0613 58.6258 30.4429H60.6258ZM47.3223 43.7465C54.6696 43.7465 60.6258 37.7902 60.6258 30.4429H58.6258C58.6258 36.6857 53.5651 41.7465 47.3223 41.7465V43.7465ZM29.6061 43.7465H47.3223V41.7465H29.6061V43.7465ZM29.3393 43.7498C29.4369 43.7498 29.5342 43.7486 29.6313 43.7461L29.581 41.7468C29.5007 41.7488 29.4201 41.7498 29.3393 41.7498V43.7498ZM10.4107 43.7498H29.3393V41.7498H10.4107V43.7498ZM-1 32.3391C-1 38.6411 4.10875 43.7498 10.4107 43.7498V41.7498C5.21332 41.7498 1 37.5365 1 32.3391H-1ZM8.25347 21.1322C2.98299 22.1412 -1 26.7739 -1 32.3391H1C1 27.7514 4.28381 23.9285 8.62953 23.0965L8.25347 21.1322ZM9.34896 21.6942C8.84952 20.6154 8.57031 19.413 8.57031 18.1427H6.57031C6.57031 19.7091 6.91516 21.1978 7.53403 22.5345L9.34896 21.6942ZM8.57031 18.1427C8.57031 13.468 12.3599 9.67838 17.0346 9.67838V7.67838C11.2553 7.67838 6.57031 12.3634 6.57031 18.1427H8.57031ZM17.0346 9.67838C19.5408 9.67838 21.7916 10.7664 23.3429 12.499L24.833 11.1649C22.9183 9.02646 20.1332 7.67838 17.0346 7.67838V9.67838ZM37.8577 1.99869C31.3412 1.99869 25.7287 5.85984 23.1791 11.4148L24.9968 12.2491C27.2324 7.37814 32.1514 3.99869 37.8577 3.99869V1.99869ZM54.0006 18.1415C54.0006 9.22609 46.7732 1.99869 37.8577 1.99869V3.99869C45.6686 3.99869 52.0006 10.3307 52.0006 18.1415H54.0006Z" fill="url(#paint2_linear_133_363)" mask="url(#path-2-inside-1_133_363)"/>
</g>
<g clip-path="url(#clip0_133_363)">
<path d="M39.7143 19.8571V21.6429C39.7143 23.2165 35.747 24.5 30.8571 24.5C25.9672 24.5 22 23.2165 22 21.6429V19.8571C22 18.2835 25.9672 17 30.8571 17C35.747 17 39.7143 18.2835 39.7143 19.8571ZM39.7143 23.875V27.8929C39.7143 29.4665 35.747 30.75 30.8571 30.75C25.9672 30.75 22 29.4665 22 27.8929V23.875C23.9029 25.1696 27.3858 25.7723 30.8571 25.7723C34.3285 25.7723 37.8113 25.1696 39.7143 23.875ZM39.7143 30.125V34.1429C39.7143 35.7165 35.747 37 30.8571 37C25.9672 37 22 35.7165 22 34.1429V30.125C23.9029 31.4196 27.3858 32.0223 30.8571 32.0223C34.3285 32.0223 37.8113 31.4196 39.7143 30.125Z" fill="white"/>
</g>
<defs>
<filter id="filter0_bii_133_363" x="-7" y="-4.00131" width="73.6259" height="53.7511" filterUnits="userSpaceOnUse" color-interpolation-filters="sRGB">
<feFlood flood-opacity="0" result="BackgroundImageFix"/>
<feGaussianBlur in="BackgroundImageFix" stdDeviation="3.5"/>
<feComposite in2="SourceAlpha" operator="in" result="effect1_backgroundBlur_133_363"/>
<feBlend mode="normal" in="SourceGraphic" in2="effect1_backgroundBlur_133_363" result="shape"/>
<feColorMatrix in="SourceAlpha" type="matrix" values="0 0 0 0 0 0 0 0 0 0 0 0 0 0 0 0 0 0 127 0" result="hardAlpha"/>
<feOffset dy="4"/>
<feGaussianBlur stdDeviation="2"/>
<feComposite in2="hardAlpha" operator="arithmetic" k2="-1" k3="1"/>
<feColorMatrix type="matrix" values="0 0 0 0 1 0 0 0 0 1 0 0 0 0 1 0 0 0 0.31 0"/>
<feBlend mode="normal" in2="shape" result="effect2_innerShadow_133_363"/>
<feColorMatrix in="SourceAlpha" type="matrix" values="0 0 0 0 0 0 0 0 0 0 0 0 0 0 0 0 0 0 127 0" result="hardAlpha"/>
<feOffset dy="4"/>
<feGaussianBlur stdDeviation="2"/>
<feComposite in2="hardAlpha" operator="arithmetic" k2="-1" k3="1"/>
<feColorMatrix type="matrix" values="0 0 0 0 1 0 0 0 0 1 0 0 0 0 1 0 0 0 0.2 0"/>
<feBlend mode="normal" in2="effect2_innerShadow_133_363" result="effect3_innerShadow_133_363"/>
</filter>
<linearGradient id="paint0_linear_133_363" x1="63.3155" y1="23.5625" x2="50.6985" y2="58.6638" gradientUnits="userSpaceOnUse">
<stop offset="0.013763" stop-color="#075AD6"/>
<stop offset="1" stop-color="#64A8F8"/>
</linearGradient>
<linearGradient id="paint1_linear_133_363" x1="45.294" y1="5.26775" x2="6.07979" y2="74.2798" gradientUnits="userSpaceOnUse">
<stop offset="0.0419" stop-color="#468DF5"/>
<stop offset="0.3603" stop-color="#7FBFFA"/>
</linearGradient>
<linearGradient id="paint2_linear_133_363" x1="57.9451" y1="7.06052" x2="23.5637" y2="51.597" gradientUnits="userSpaceOnUse">
<stop stop-color="white" stop-opacity="0.85"/>
<stop offset="1" stop-color="#A2D2FF" stop-opacity="0.17"/>
</linearGradient>
<clipPath id="clip0_133_363">
<rect width="17.7143" height="20" fill="white" transform="translate(22 17)"/>
</clipPath>
</defs>
</svg>
