<svg width="29" height="29" viewBox="0 0 29 29" fill="none" xmlns="http://www.w3.org/2000/svg">
<circle cx="14.5" cy="14.5" r="14.5" fill="#002958"/>
<g clip-path="url(#clip0_681_2252)">
<path d="M21.1572 10.8735C21.5 12.21 21.5 15 21.5 15C21.5 15 21.5 17.79 21.1572 19.1265C20.9667 19.8653 20.4095 20.4465 19.7037 20.643C18.422 21 14 21 14 21C14 21 9.58025 21 8.29625 20.643C7.5875 20.4435 7.031 19.863 6.84275 19.1265C6.5 17.79 6.5 15 6.5 15C6.5 15 6.5 12.21 6.84275 10.8735C7.03325 10.1348 7.5905 9.5535 8.29625 9.357C9.58025 9 14 9 14 9C14 9 18.422 9 19.7037 9.357C20.4125 9.5565 20.969 10.137 21.1572 10.8735ZM12.5 17.625L17 15L12.5 12.375V17.625Z" fill="#F8F9FA"/>
</g>
<defs>
<clipPath id="clip0_681_2252">
<rect width="18" height="18" fill="white" transform="translate(5 6)"/>
</clipPath>
</defs>
</svg>
