<svg width="28" height="28" viewBox="0 0 28 28" fill="none" xmlns="http://www.w3.org/2000/svg">
<g id="Group 1000004198">
<g id="Group 1000004197">
<circle id="Ellipse 12" cx="14" cy="14" r="14" fill="#002958"/>
<path id="Vector" d="M13.9288 13.0629V12.6889H15.1074V17.9435H14.4336C14.3003 17.9437 14.1722 17.8937 14.0776 17.8044C13.983 17.7152 13.9294 17.5939 13.9288 17.4672C13.4368 17.8093 12.8427 17.9942 12.233 17.9934C11.4712 17.9934 10.7406 17.706 10.2017 17.1945C9.66291 16.683 9.35996 15.9891 9.3595 15.2655C9.35996 14.5419 9.66291 13.848 10.2017 13.3365C10.7406 12.825 11.4712 12.5376 12.233 12.5376C12.8424 12.537 13.437 12.721 13.9288 13.0629ZM9.05413 11V11.1704C9.05413 11.4879 9.0095 11.7472 8.79163 12.0514L8.76538 12.0797C8.69279 12.157 8.62218 12.236 8.55363 12.3166L4.771 16.8264H9.05413V17.4647C9.05413 17.5277 9.04106 17.59 9.01568 17.6481C8.99029 17.7063 8.95309 17.7591 8.9062 17.8036C8.8593 17.848 8.80364 17.8833 8.74239 17.9073C8.68114 17.9313 8.61551 17.9436 8.54925 17.9435H3V17.6426C3 17.2744 3.09625 17.1098 3.21875 16.9386L7.24988 12.1969H3.168V11H9.05413ZM16.5363 17.9435C16.4249 17.9435 16.318 17.9014 16.2393 17.8266C16.1605 17.7518 16.1163 17.6503 16.1163 17.5445V11H17.3771V17.9435H16.5363ZM21.1064 12.5044C21.4863 12.5043 21.8624 12.5753 22.2134 12.7132C22.5645 12.8512 22.8834 13.0535 23.1521 13.3086C23.4208 13.5637 23.634 13.8666 23.7795 14.1999C23.9249 14.5332 23.9999 14.8905 24 15.2514C24.0001 15.6122 23.9254 15.9695 23.7801 16.303C23.6349 16.6364 23.4219 16.9394 23.1534 17.1946C22.8848 17.4498 22.566 17.6523 22.2151 17.7905C21.8641 17.9287 21.488 17.9999 21.1081 18C20.3409 18.0002 19.605 17.7109 19.0624 17.1958C18.5197 16.6806 18.2147 15.9818 18.2145 15.253C18.2143 14.5243 18.5188 13.8253 19.0611 13.3098C19.6035 12.7943 20.3392 12.5046 21.1064 12.5044ZM12.2339 16.8705C12.4591 16.8753 12.683 16.8374 12.8925 16.7589C13.102 16.6804 13.293 16.5629 13.454 16.4134C13.6151 16.2638 13.7431 16.0852 13.8304 15.888C13.9178 15.6908 13.9628 15.479 13.9628 15.2651C13.9628 15.0511 13.9178 14.8393 13.8304 14.6421C13.7431 14.4449 13.6151 14.2663 13.454 14.1168C13.293 13.9672 13.102 13.8497 12.8925 13.7712C12.683 13.6928 12.4591 13.6548 12.2339 13.6597C11.7923 13.6692 11.3722 13.8426 11.0634 14.1426C10.7547 14.4426 10.5818 14.8455 10.5818 15.2651C10.5818 15.6846 10.7547 16.0875 11.0634 16.3876C11.3722 16.6876 11.7923 16.8609 12.2339 16.8705ZM21.1064 16.868C21.5577 16.868 21.9906 16.6976 22.3098 16.3945C22.6289 16.0913 22.8083 15.6801 22.8083 15.2514C22.8083 14.8226 22.6289 14.4114 22.3098 14.1083C21.9906 13.8051 21.5577 13.6348 21.1064 13.6348C20.655 13.6348 20.2221 13.8051 19.903 14.1083C19.5838 14.4114 19.4045 14.8226 19.4045 15.2514C19.4045 15.6801 19.5838 16.0913 19.903 16.3945C20.2221 16.6976 20.655 16.868 21.1064 16.868Z" fill="#F8F9FA"/>
</g>
</g>
</svg>
